<svg width="1274" height="691" viewBox="0 0 1274 691" xmlns="http://www.w3.org/2000/svg" xmlns:xlink="http://www.w3.org/1999/xlink"><defs/><g transform="translate(-542.89,-51.52)"><g transform="translate(543.888536,111.850500)" id="shape1"><path d="M118.3,63.8L118.3,7.0C118.3,3.1,115.2,.0,111.3,.0L7.0,.0C3.1,.0,.0,3.1,.0,7.0L.0,63.8C.0,67.7,3.1,70.8,7.0,70.8L111.3,70.8C115.2,70.8,118.3,67.7,118.3,63.8z" stroke="#323232" stroke-width="1" fill-rule="nonzero" fill="#a5efff"/><text style="fill:#191919;font-family:Times New Roman;font-size:14.00pt;font-weight:bold" xml:space="preserve"><tspan x="21.2" y="41.9">Muse S/2</tspan></text></g><g transform="translate(543.888536,335.433220)" id="shape2"><path d="M118.3,63.8L118.3,7.0C118.3,3.1,115.2,.0,111.3,.0L7.0,.0C3.1,.0,.0,3.1,.0,7.0L.0,63.8C.0,67.7,3.1,70.8,7.0,70.8L111.3,70.8C115.2,70.8,118.3,67.7,118.3,63.8z" stroke="#323232" stroke-width="1" fill-rule="nonzero" fill="#a5efff"/><text style="fill:#191919;font-family:Times New Roman;font-size:14.00pt;font-weight:bold" xml:space="preserve"><tspan x="23.7" y="41.9">Webcam</tspan></text></g><g transform="translate(543.888536,223.748300)" id="shape3"><path d="M118.3,63.8L118.3,7.0C118.3,3.1,115.2,.0,111.3,.0L7.0,.0C3.1,.0,.0,3.1,.0,7.0L.0,63.8C.0,67.7,3.1,70.8,7.0,70.8L111.3,70.8C115.2,70.8,118.3,67.7,118.3,63.8z" stroke="#323232" stroke-width="1" fill-rule="nonzero" fill="#f1c3dc"/><text style="fill:#191919;font-family:Times New Roman;font-size:14.00pt;font-weight:bold" xml:space="preserve"><tspan x="18.2" y="30.4">BlueMuse</tspan><tspan x="35.7" y="53.4">(LSL)</tspan></text></g><path transform="translate(695.440000,77.850500)" stroke-dasharray="6,4" stroke="#2e8d5d" d="M979.0,356.0L979.0,7.0C979.0,3.1,975.9,.0,972.0,.0L7.0,.0C3.1,.0,.0,3.1,.0,7.0L.0,356.0C.0,359.9,3.1,363.0,7.0,363.0L972.0,363.0C975.9,363.0,979.0,359.9,979.0,356.0z" stroke-width="2.666670083999634" fill="none" id="shape4"/><g transform="translate(1712.020000,52.850500)" id="shape5"><path d="M104.0,681.0L104.0,7.0C104.0,3.1,100.9,.0,97.0,.0L7.0,.0C3.1,.0,.0,3.1,.0,7.0L.0,681.0C.0,684.9,3.1,688.0,7.0,688.0L97.0,688.0C100.9,688.0,104.0,684.9,104.0,681.0z" stroke="#000000" stroke-width="1" fill-rule="nonzero" fill="#efefef"/><text style="fill:#191919;font-family:Times New Roman;font-size:14.00pt;font-weight:bold" xml:space="preserve"><tspan x="17.5" y="350.5">Memory</tspan></text></g><path transform="translate(708.381400,562.850500)" d="M183.6,68.0L183.6,7.0C183.6,3.1,180.5,.0,176.6,.0L7.0,.0C3.1,.0,.0,3.1,.0,7.0L.0,68.0C.0,71.9,3.1,75.0,7.0,75.0L176.6,75.0C180.5,75.0,183.6,71.9,183.6,68.0z" stroke="#a83132" stroke-width="2.666670083999634" fill-rule="nonzero" fill="#f5cfcf" id="shape6"/><g transform="translate(721.382700,529.850500)" id="shape7"><path d="M157.8,41.0L157.8,7.0C157.8,3.1,154.6,.0,150.8,.0L7.0,.0C3.1,.0,.0,3.1,.0,7.0L.0,41.0C.0,44.9,3.1,48.0,7.0,48.0L150.8,48.0C154.6,48.0,157.8,44.9,157.8,41.0z" stroke="#a83132" stroke-width="2.666670083999634" fill-rule="nonzero" fill="#f5cfcf"/><text style="fill:#191919;font-family:Times New Roman;font-size:13.00pt;font-weight:bold" xml:space="preserve"><tspan x="5.9" y="30.0">Subject Description</tspan></text></g><g transform="translate(721.382700,586.850500)" id="shape8"><path d="M157.8,26.0L157.8,7.0C157.8,3.1,154.6,.0,150.8,.0L7.0,.0C3.1,.0,.0,3.1,.0,7.0L.0,26.0C.0,29.9,3.1,33.0,7.0,33.0L150.8,33.0C154.6,33.0,157.8,29.9,157.8,26.0z" stroke="#323232" stroke-width="1" fill-rule="nonzero" fill="#ffffff"/><text style="fill:#191919;font-family:Times New Roman;font-size:15.00pt" xml:space="preserve"><tspan x="51.4" y="23.0">Submit</tspan></text></g><path transform="translate(899.381500,562.850500)" d="M183.6,154.0L183.6,7.0C183.6,3.1,180.5,.0,176.6,.0L7.0,.0C3.1,.0,.0,3.1,.0,7.0L.0,154.0C.0,157.9,3.1,161.0,7.0,161.0L176.6,161.0C180.5,161.0,183.6,157.9,183.6,154.0z" stroke="#a83132" stroke-width="2.666670083999634" fill-rule="nonzero" fill="#f5cfcf" id="shape9"/><g transform="translate(912.382500,529.850500)" id="shape10"><path d="M157.8,41.0L157.8,7.0C157.8,3.1,154.6,.0,150.8,.0L7.0,.0C3.1,.0,.0,3.1,.0,7.0L.0,41.0C.0,44.9,3.1,48.0,7.0,48.0L150.8,48.0C154.6,48.0,157.8,44.9,157.8,41.0z" stroke="#a83132" stroke-width="2.666670083999634" fill-rule="nonzero" fill="#f5cfcf"/><text style="fill:#191919;font-family:Times New Roman;font-size:13.00pt;font-weight:bold" xml:space="preserve"><tspan x="5.4" y="30.0">RGB Video Control</tspan></text></g><g transform="translate(912.382700,586.850500)" id="shape11"><path d="M157.8,26.0L157.8,7.0C157.8,3.1,154.6,.0,150.8,.0L7.0,.0C3.1,.0,.0,3.1,.0,7.0L.0,26.0C.0,29.9,3.1,33.0,7.0,33.0L150.8,33.0C154.6,33.0,157.8,29.9,157.8,26.0z" stroke="#323232" stroke-width="1" fill-rule="nonzero" fill="#ffffff"/><text style="fill:#191919;font-family:Times New Roman;font-size:15.00pt" xml:space="preserve"><tspan x="42.4" y="23.0">Visualize</tspan></text></g><g transform="translate(912.312700,628.850500)" id="shape12"><path d="M157.8,26.0L157.8,7.0C157.8,3.1,154.6,.0,150.8,.0L7.0,.0C3.1,.0,.0,3.1,.0,7.0L.0,26.0C.0,29.9,3.1,33.0,7.0,33.0L150.8,33.0C154.6,33.0,157.8,29.9,157.8,26.0z" stroke="#323232" stroke-width="1" fill-rule="nonzero" fill="#ffffff"/><text style="fill:#191919;font-family:Times New Roman;font-size:15.00pt" xml:space="preserve"><tspan x="16.9" y="23.0">Start Recording</tspan></text></g><g transform="translate(912.312700,670.850500)" id="shape13"><path d="M157.8,26.0L157.8,7.0C157.8,3.1,154.6,.0,150.8,.0L7.0,.0C3.1,.0,.0,3.1,.0,7.0L.0,26.0C.0,29.9,3.1,33.0,7.0,33.0L150.8,33.0C154.6,33.0,157.8,29.9,157.8,26.0z" stroke="#323232" stroke-width="1" fill-rule="nonzero" fill="#ffffff"/><text style="fill:#191919;font-family:Times New Roman;font-size:15.00pt" xml:space="preserve"><tspan x="17.4" y="23.0">Stop Recording</tspan></text></g><path transform="translate(1091.381500,562.850500)" d="M183.6,154.0L183.6,7.0C183.6,3.1,180.5,.0,176.6,.0L7.0,.0C3.1,.0,.0,3.1,.0,7.0L.0,154.0C.0,157.9,3.1,161.0,7.0,161.0L176.6,161.0C180.5,161.0,183.6,157.9,183.6,154.0z" stroke="#a83132" stroke-width="2.666670083999634" fill-rule="nonzero" fill="#f5cfcf" id="shape14"/><g transform="translate(1104.382700,529.850500)" id="shape15"><path d="M157.8,41.0L157.8,7.0C157.8,3.1,154.6,.0,150.8,.0L7.0,.0C3.1,.0,.0,3.1,.0,7.0L.0,41.0C.0,44.9,3.1,48.0,7.0,48.0L150.8,48.0C154.6,48.0,157.8,44.9,157.8,41.0z" stroke="#a83132" stroke-width="2.666670083999634" fill-rule="nonzero" fill="#f5cfcf"/><text style="fill:#191919;font-family:Times New Roman;font-size:13.00pt;font-weight:bold" xml:space="preserve"><tspan x="27.4" y="30.0">Muse Control</tspan></text></g><g transform="translate(1104.382700,586.850500)" id="shape16"><path d="M157.8,26.0L157.8,7.0C157.8,3.1,154.6,.0,150.8,.0L7.0,.0C3.1,.0,.0,3.1,.0,7.0L.0,26.0C.0,29.9,3.1,33.0,7.0,33.0L150.8,33.0C154.6,33.0,157.8,29.9,157.8,26.0z" stroke="#323232" stroke-width="1" fill-rule="nonzero" fill="#ffffff"/><text style="fill:#191919;font-family:Times New Roman;font-size:15.00pt" xml:space="preserve"><tspan x="42.4" y="23.0">Visualize</tspan></text></g><g transform="translate(1104.312700,628.850500)" id="shape17"><path d="M157.8,26.0L157.8,7.0C157.8,3.1,154.6,.0,150.8,.0L7.0,.0C3.1,.0,.0,3.1,.0,7.0L.0,26.0C.0,29.9,3.1,33.0,7.0,33.0L150.8,33.0C154.6,33.0,157.8,29.9,157.8,26.0z" stroke="#323232" stroke-width="1" fill-rule="nonzero" fill="#ffffff"/><text style="fill:#191919;font-family:Times New Roman;font-size:15.00pt" xml:space="preserve"><tspan x="16.9" y="23.0">Start Recording</tspan></text></g><g transform="translate(1104.312700,670.850500)" id="shape18"><path d="M157.8,26.0L157.8,7.0C157.8,3.1,154.6,.0,150.8,.0L7.0,.0C3.1,.0,.0,3.1,.0,7.0L.0,26.0C.0,29.9,3.1,33.0,7.0,33.0L150.8,33.0C154.6,33.0,157.8,29.9,157.8,26.0z" stroke="#323232" stroke-width="1" fill-rule="nonzero" fill="#ffffff"/><text style="fill:#191919;font-family:Times New Roman;font-size:15.00pt" xml:space="preserve"><tspan x="17.4" y="23.0">Stop Recording</tspan></text></g><path transform="translate(1283.381500,562.850500)" d="M183.6,154.0L183.6,7.0C183.6,3.1,180.5,.0,176.6,.0L7.0,.0C3.1,.0,.0,3.1,.0,7.0L.0,154.0C.0,157.9,3.1,161.0,7.0,161.0L176.6,161.0C180.5,161.0,183.6,157.9,183.6,154.0z" stroke="#a83132" stroke-width="2.666670083999634" fill-rule="nonzero" fill="#f5cfcf" id="shape19"/><g transform="translate(1296.382500,529.850500)" id="shape20"><path d="M157.8,41.0L157.8,7.0C157.8,3.1,154.6,.0,150.8,.0L7.0,.0C3.1,.0,.0,3.1,.0,7.0L.0,41.0C.0,44.9,3.1,48.0,7.0,48.0L150.8,48.0C154.6,48.0,157.8,44.9,157.8,41.0z" stroke="#a83132" stroke-width="2.666670083999634" fill-rule="nonzero" fill="#f5cfcf"/><text style="fill:#191919;font-family:Times New Roman;font-size:13.00pt;font-weight:bold" xml:space="preserve"><tspan x="26.4" y="20.0">Image Stimuli </tspan><tspan x="49.4" y="40.0">Control</tspan></text></g><g transform="translate(1296.382700,586.850500)" id="shape21"><path d="M157.8,26.0L157.8,7.0C157.8,3.1,154.6,.0,150.8,.0L7.0,.0C3.1,.0,.0,3.1,.0,7.0L.0,26.0C.0,29.9,3.1,33.0,7.0,33.0L150.8,33.0C154.6,33.0,157.8,29.9,157.8,26.0z" stroke="#323232" stroke-width="1" fill-rule="nonzero" fill="#ffffff"/><text style="fill:#191919;font-family:Times New Roman;font-size:15.00pt" xml:space="preserve"><tspan x="29.9" y="23.0">Load Config</tspan></text></g><g transform="translate(1296.312700,628.850500)" id="shape22"><path d="M157.8,26.0L157.8,7.0C157.8,3.1,154.6,.0,150.8,.0L7.0,.0C3.1,.0,.0,3.1,.0,7.0L.0,26.0C.0,29.9,3.1,33.0,7.0,33.0L150.8,33.0C154.6,33.0,157.8,29.9,157.8,26.0z" stroke="#323232" stroke-width="1" fill-rule="nonzero" fill="#ffffff"/><text style="fill:#191919;font-family:Times New Roman;font-size:15.00pt" xml:space="preserve"><tspan x="30.4" y="23.0">Save Config</tspan></text></g><g transform="translate(1296.312700,670.850500)" id="shape23"><path d="M157.8,26.0L157.8,7.0C157.8,3.1,154.6,.0,150.8,.0L7.0,.0C3.1,.0,.0,3.1,.0,7.0L.0,26.0C.0,29.9,3.1,33.0,7.0,33.0L150.8,33.0C154.6,33.0,157.8,29.9,157.8,26.0z" stroke="#323232" stroke-width="1" fill-rule="nonzero" fill="#ffffff"/><text style="fill:#191919;font-family:Times New Roman;font-size:15.00pt" xml:space="preserve"><tspan x="29.4" y="23.0">Start Stimuli</tspan></text></g><path transform="translate(1475.381500,562.850500)" d="M183.6,154.0L183.6,7.0C183.6,3.1,180.5,.0,176.6,.0L7.0,.0C3.1,.0,.0,3.1,.0,7.0L.0,154.0C.0,157.9,3.1,161.0,7.0,161.0L176.6,161.0C180.5,161.0,183.6,157.9,183.6,154.0z" stroke="#a83132" stroke-width="2.666670083999634" fill-rule="nonzero" fill="#f5cfcf" id="shape24"/><g transform="translate(1488.382500,529.850500)" id="shape25"><path d="M157.8,41.0L157.8,7.0C157.8,3.1,154.6,.0,150.8,.0L7.0,.0C3.1,.0,.0,3.1,.0,7.0L.0,41.0C.0,44.9,3.1,48.0,7.0,48.0L150.8,48.0C154.6,48.0,157.8,44.9,157.8,41.0z" stroke="#a83132" stroke-width="2.666670083999634" fill-rule="nonzero" fill="#f5cfcf"/><text style="fill:#191919;font-family:Times New Roman;font-size:13.00pt;font-weight:bold" xml:space="preserve"><tspan x="27.9" y="20.0">Video Stimuli </tspan><tspan x="49.4" y="40.0">Control</tspan></text></g><g transform="translate(1488.382700,586.850500)" id="shape26"><path d="M157.8,26.0L157.8,7.0C157.8,3.1,154.6,.0,150.8,.0L7.0,.0C3.1,.0,.0,3.1,.0,7.0L.0,26.0C.0,29.9,3.1,33.0,7.0,33.0L150.8,33.0C154.6,33.0,157.8,29.9,157.8,26.0z" stroke="#323232" stroke-width="1" fill-rule="nonzero" fill="#ffffff"/><text style="fill:#191919;font-family:Times New Roman;font-size:15.00pt" xml:space="preserve"><tspan x="29.9" y="23.0">Load Config</tspan></text></g><g transform="translate(1488.312700,628.850500)" id="shape27"><path d="M157.8,26.0L157.8,7.0C157.8,3.1,154.6,.0,150.8,.0L7.0,.0C3.1,.0,.0,3.1,.0,7.0L.0,26.0C.0,29.9,3.1,33.0,7.0,33.0L150.8,33.0C154.6,33.0,157.8,29.9,157.8,26.0z" stroke="#323232" stroke-width="1" fill-rule="nonzero" fill="#ffffff"/><text style="fill:#191919;font-family:Times New Roman;font-size:15.00pt" xml:space="preserve"><tspan x="30.4" y="23.0">Save Config</tspan></text></g><g transform="translate(1488.312700,670.850500)" id="shape28"><path d="M157.8,26.0L157.8,7.0C157.8,3.1,154.6,.0,150.8,.0L7.0,.0C3.1,.0,.0,3.1,.0,7.0L.0,26.0C.0,29.9,3.1,33.0,7.0,33.0L150.8,33.0C154.6,33.0,157.8,29.9,157.8,26.0z" stroke="#323232" stroke-width="1" fill-rule="nonzero" fill="#ffffff"/><text style="fill:#191919;font-family:Times New Roman;font-size:15.00pt" xml:space="preserve"><tspan x="29.4" y="23.0">Start Stimuli</tspan></text></g><path transform="translate(695.440000,485.902500)" stroke-dasharray="6,4" stroke="#a83132" d="M978.4,247.9L978.4,7.0C978.4,3.1,975.3,.0,971.4,.0L7.0,.0C3.1,.0,.0,3.1,.0,7.0L.0,247.9C.0,251.8,3.1,254.9,7.0,254.9L971.4,254.9C975.3,254.9,978.4,251.8,978.4,247.9z" stroke-width="2.666670083999634" fill="none" id="shape29"/><g transform="translate(695.440000,465.015500)" id="shape30"><path d="M979.0,37.8L979.0,7.0C979.0,3.1,975.9,.0,972.0,.0L7.0,.0C3.1,.0,.0,3.1,.0,7.0L.0,37.8C.0,41.7,3.1,44.8,7.0,44.8L972.0,44.8C975.9,44.8,979.0,41.7,979.0,37.8z" stroke="#a83132" stroke-width="2.666670083999634" fill-rule="nonzero" fill="#f5cfcf"/><text style="fill:#191919;font-family:Times New Roman;font-size:14.00pt;font-weight:bold" xml:space="preserve"><tspan x="4.0" y="28.9">      Web based GUI (html, csss, js)</tspan></text></g><g transform="translate(1091.099500,163.748500)" id="shape31"><path d="M183.6,66.5L183.6,7.0C183.6,3.1,180.5,.0,176.6,.0L7.0,.0C3.1,.0,.0,3.1,.0,7.0L.0,66.5C.0,70.4,3.1,73.5,7.0,73.5L176.6,73.5C180.5,73.5,183.6,70.4,183.6,66.5z" stroke="#2e8d5d" stroke-width="2.666670083999634" fill-rule="nonzero" fill="#e9f4ed"/><text style="fill:#191919;font-family:Times New Roman;font-size:15.00pt" xml:space="preserve"><tspan x="46.3" y="41.5">Show Live </tspan><tspan x="51.8" y="64.5">EEG Data</tspan></text></g><g transform="translate(1104.100700,130.748500)" id="shape32"><path d="M157.8,41.0L157.8,7.0C157.8,3.1,154.6,.0,150.8,.0L7.0,.0C3.1,.0,.0,3.1,.0,7.0L.0,41.0C.0,44.9,3.1,48.0,7.0,48.0L150.8,48.0C154.6,48.0,157.8,44.9,157.8,41.0z" stroke="#2e8d5d" stroke-width="2.666670083999634" fill-rule="nonzero" fill="#e9f4ed"/><text style="fill:#191919;font-family:Times New Roman;font-size:13.00pt;font-weight:bold" xml:space="preserve"><tspan x="20.9" y="20.0">ShowMuseFeed </tspan><tspan x="62.9" y="40.0">GUI</tspan></text></g><g transform="translate(899.451500,163.748500)" id="shape33"><path d="M183.6,66.5L183.6,7.0C183.6,3.1,180.5,.0,176.6,.0L7.0,.0C3.1,.0,.0,3.1,.0,7.0L.0,66.5C.0,70.4,3.1,73.5,7.0,73.5L176.6,73.5C180.5,73.5,183.6,70.4,183.6,66.5z" stroke="#2e8d5d" stroke-width="2.666670083999634" fill-rule="nonzero" fill="#e9f4ed"/><text style="fill:#191919;font-family:Times New Roman;font-size:15.00pt" xml:space="preserve"><tspan x="46.3" y="42.0">Show Live </tspan><tspan x="47.3" y="65.0">Video Data</tspan></text></g><g transform="translate(912.452700,130.748500)" id="shape34"><path d="M157.8,41.0L157.8,7.0C157.8,3.1,154.6,.0,150.8,.0L7.0,.0C3.1,.0,.0,3.1,.0,7.0L.0,41.0C.0,44.9,3.1,48.0,7.0,48.0L150.8,48.0C154.6,48.0,157.8,44.9,157.8,41.0z" stroke="#2e8d5d" stroke-width="2.666670083999634" fill-rule="nonzero" fill="#e9f4ed"/><text style="fill:#191919;font-family:Times New Roman;font-size:13.00pt;font-weight:bold" xml:space="preserve"><tspan x="19.9" y="20.0">ShowVideoFeed </tspan><tspan x="62.9" y="40.0">GUI</tspan></text></g><g transform="translate(1475.451700,163.748500)" id="shape35"><path d="M183.6,66.5L183.6,7.0C183.6,3.1,180.5,.0,176.6,.0L7.0,.0C3.1,.0,.0,3.1,.0,7.0L.0,66.5C.0,70.4,3.1,73.5,7.0,73.5L176.6,73.5C180.5,73.5,183.6,70.4,183.6,66.5z" stroke="#2e8d5d" stroke-width="2.666670083999634" fill-rule="nonzero" fill="#e9f4ed"/><text style="fill:#191919;font-family:Times New Roman;font-size:15.00pt" xml:space="preserve"><tspan x="43.3" y="42.0">Show Video</tspan><tspan x="52.3" y="65.0">as Stimuli</tspan></text></g><g transform="translate(1488.452900,130.748500)" id="shape36"><path d="M157.8,41.0L157.8,7.0C157.8,3.1,154.6,.0,150.8,.0L7.0,.0C3.1,.0,.0,3.1,.0,7.0L.0,41.0C.0,44.9,3.1,48.0,7.0,48.0L150.8,48.0C154.6,48.0,157.8,44.9,157.8,41.0z" stroke="#2e8d5d" stroke-width="2.666670083999634" fill-rule="nonzero" fill="#e9f4ed"/><text style="fill:#191919;font-family:Times New Roman;font-size:13.00pt;font-weight:bold" xml:space="preserve"><tspan x="14.4" y="20.0">StartVideoStimul </tspan><tspan x="62.9" y="40.0">GUI</tspan></text></g><g transform="translate(1283.381500,163.748500)" id="shape37"><path d="M183.6,66.5L183.6,7.0C183.6,3.1,180.5,.0,176.6,.0L7.0,.0C3.1,.0,.0,3.1,.0,7.0L.0,66.5C.0,70.4,3.1,73.5,7.0,73.5L176.6,73.5C180.5,73.5,183.6,70.4,183.6,66.5z" stroke="#2e8d5d" stroke-width="2.666670083999634" fill-rule="nonzero" fill="#e9f4ed"/><text style="fill:#191919;font-family:Times New Roman;font-size:15.00pt" xml:space="preserve"><tspan x="38.3" y="42.0">Show  Image </tspan><tspan x="52.3" y="65.0">as Stimuli</tspan></text></g><g transform="translate(1296.382700,130.748500)" id="shape38"><path d="M157.8,41.0L157.8,7.0C157.8,3.1,154.6,.0,150.8,.0L7.0,.0C3.1,.0,.0,3.1,.0,7.0L.0,41.0C.0,44.9,3.1,48.0,7.0,48.0L150.8,48.0C154.6,48.0,157.8,44.9,157.8,41.0z" stroke="#2e8d5d" stroke-width="2.666670083999634" fill-rule="nonzero" fill="#e9f4ed"/><text style="fill:#191919;font-family:Times New Roman;font-size:13.00pt;font-weight:bold" xml:space="preserve"><tspan x="12.9" y="20.0">StartImageStimul </tspan><tspan x="62.9" y="40.0">GUI</tspan></text></g><g transform="translate(695.367600,52.850500)" id="shape39"><path d="M979.0,41.0L979.0,7.0C979.0,3.1,975.9,.0,972.0,.0L7.0,.0C3.1,.0,.0,3.1,.0,7.0L.0,41.0C.0,44.9,3.1,48.0,7.0,48.0L972.0,48.0C975.9,48.0,979.0,44.9,979.0,41.0z" stroke="#2e8d5d" stroke-width="2.666670083999634" fill-rule="nonzero" fill="#e9f4ed"/><text style="fill:#191919;font-family:Times New Roman;font-size:14.00pt;font-weight:bold" xml:space="preserve"><tspan x="398.0" y="30.5">Python based backend</tspan></text></g><g transform="translate(708.451700,167.836400)" id="shape40"><path d="M183.6,91.3L183.6,7.0C183.6,3.1,180.5,.0,176.6,.0L7.0,.0C3.1,.0,.0,3.1,.0,7.0L.0,91.3C.0,95.2,3.1,98.3,7.0,98.3L176.6,98.3C180.5,98.3,183.6,95.2,183.6,91.3z" stroke="#2e8d5d" stroke-width="2.666670083999634" fill-rule="nonzero" fill="#e9f4ed"/><text style="fill:#191919;font-family:Times New Roman;font-size:15.00pt" xml:space="preserve"><tspan x="38.8" y="43.3">Muse Setup()</tspan><tspan x="26.8" y="66.3">Webcam Setup()</tspan><tspan x="38.8" y="89.3">Flask Setup()</tspan></text></g><g transform="translate(721.452900,134.835800)" id="shape41"><path d="M157.8,41.0L157.8,7.0C157.8,3.1,154.6,.0,150.8,.0L7.0,.0C3.1,.0,.0,3.1,.0,7.0L.0,41.0C.0,44.9,3.1,48.0,7.0,48.0L150.8,48.0C154.6,48.0,157.8,44.9,157.8,41.0z" stroke="#2e8d5d" stroke-width="2.666670083999634" fill-rule="nonzero" fill="#e9f4ed"/><text style="fill:#191919;font-family:Times New Roman;font-size:13.00pt;font-weight:bold" xml:space="preserve"><tspan x="30.4" y="30.0">Initialization</tspan></text></g><g transform="translate(899.381500,320.121100)" id="shape42"><path d="M183.6,91.3L183.6,7.0C183.6,3.1,180.5,.0,176.6,.0L7.0,.0C3.1,.0,.0,3.1,.0,7.0L.0,91.3C.0,95.2,3.1,98.3,7.0,98.3L176.6,98.3C180.5,98.3,183.6,95.2,183.6,91.3z" stroke="#2e8d5d" stroke-width="2.666670083999634" fill-rule="nonzero" fill="#e9f4ed"/><text style="fill:#191919;font-family:Times New Roman;font-size:15.00pt" xml:space="preserve"><tspan x="19.3" y="44.0">ShowVideoFeed()</tspan><tspan x="25.3" y="67.0">StartRecording()</tspan><tspan x="25.8" y="90.0">StopRecording()</tspan></text></g><g transform="translate(912.382700,287.120500)" id="shape43"><path d="M157.8,41.0L157.8,7.0C157.8,3.1,154.6,.0,150.8,.0L7.0,.0C3.1,.0,.0,3.1,.0,7.0L.0,41.0C.0,44.9,3.1,48.0,7.0,48.0L150.8,48.0C154.6,48.0,157.8,44.9,157.8,41.0z" stroke="#2e8d5d" stroke-width="2.666670083999634" fill-rule="nonzero" fill="#e9f4ed"/><text style="fill:#191919;font-family:Times New Roman;font-size:13.00pt;font-weight:bold" xml:space="preserve"><tspan x="26.4" y="20.0">Backend RGB </tspan><tspan x="26.4" y="40.0">Video Control</tspan></text></g><g transform="translate(1091.101500,320.121100)" id="shape44"><path d="M183.6,91.3L183.6,7.0C183.6,3.1,180.5,.0,176.6,.0L7.0,.0C3.1,.0,.0,3.1,.0,7.0L.0,91.3C.0,95.2,3.1,98.3,7.0,98.3L176.6,98.3C180.5,98.3,183.6,95.2,183.6,91.3z" stroke="#2e8d5d" stroke-width="2.666670083999634" fill-rule="nonzero" fill="#e9f4ed"/><text style="fill:#191919;font-family:Times New Roman;font-size:15.00pt" xml:space="preserve"><tspan x="21.3" y="44.0">ShowMuseFeed()</tspan><tspan x="25.3" y="67.0">StartRecording()</tspan><tspan x="25.8" y="90.0">StopRecording()</tspan></text></g><g transform="translate(1104.102700,287.120500)" id="shape45"><path d="M157.8,41.0L157.8,7.0C157.8,3.1,154.6,.0,150.8,.0L7.0,.0C3.1,.0,.0,3.1,.0,7.0L.0,41.0C.0,44.9,3.1,48.0,7.0,48.0L150.8,48.0C154.6,48.0,157.8,44.9,157.8,41.0z" stroke="#2e8d5d" stroke-width="2.666670083999634" fill-rule="nonzero" fill="#e9f4ed"/><text style="fill:#191919;font-family:Times New Roman;font-size:13.00pt;font-weight:bold" xml:space="preserve"><tspan x="25.4" y="20.0">Backend Muse </tspan><tspan x="49.4" y="40.0">Control</tspan></text></g><g transform="translate(1283.451500,320.121100)" id="shape46"><path d="M183.6,91.3L183.6,7.0C183.6,3.1,180.5,.0,176.6,.0L7.0,.0C3.1,.0,.0,3.1,.0,7.0L.0,91.3C.0,95.2,3.1,98.3,7.0,98.3L176.6,98.3C180.5,98.3,183.6,95.2,183.6,91.3z" stroke="#2e8d5d" stroke-width="2.666670083999634" fill-rule="nonzero" fill="#e9f4ed"/><text style="fill:#191919;font-family:Times New Roman;font-size:15.00pt" xml:space="preserve"><tspan x="38.3" y="44.0">LoadConfig()</tspan><tspan x="38.8" y="67.0">SaveConfig()</tspan><tspan x="14.3" y="90.0">StartImageStimuli()</tspan></text></g><g transform="translate(1296.452700,287.120500)" id="shape47"><path d="M157.8,41.0L157.8,7.0C157.8,3.1,154.6,.0,150.8,.0L7.0,.0C3.1,.0,.0,3.1,.0,7.0L.0,41.0C.0,44.9,3.1,48.0,7.0,48.0L150.8,48.0C154.6,48.0,157.8,44.9,157.8,41.0z" stroke="#2e8d5d" stroke-width="2.666670083999634" fill-rule="nonzero" fill="#e9f4ed"/><text style="fill:#191919;font-family:Times New Roman;font-size:13.00pt;font-weight:bold" xml:space="preserve"><tspan x="22.9" y="20.0">Backend Image </tspan><tspan x="19.4" y="40.0">Stimuli Control</tspan></text></g><g transform="translate(1475.381500,320.121100)" id="shape48"><path d="M183.6,91.3L183.6,7.0C183.6,3.1,180.5,.0,176.6,.0L7.0,.0C3.1,.0,.0,3.1,.0,7.0L.0,91.3C.0,95.2,3.1,98.3,7.0,98.3L176.6,98.3C180.5,98.3,183.6,95.2,183.6,91.3z" stroke="#2e8d5d" stroke-width="2.666670083999634" fill-rule="nonzero" fill="#e9f4ed"/><text style="fill:#191919;font-family:Times New Roman;font-size:15.00pt" xml:space="preserve"><tspan x="38.3" y="44.0">LoadConfig()</tspan><tspan x="38.8" y="67.0">SaveConfig()</tspan><tspan x="14.3" y="90.0">StartVideoStimuli()</tspan></text></g><g transform="translate(1488.382700,287.120500)" id="shape49"><path d="M157.8,41.0L157.8,7.0C157.8,3.1,154.6,.0,150.8,.0L7.0,.0C3.1,.0,.0,3.1,.0,7.0L.0,41.0C.0,44.9,3.1,48.0,7.0,48.0L150.8,48.0C154.6,48.0,157.8,44.9,157.8,41.0z" stroke="#2e8d5d" stroke-width="2.666670083999634" fill-rule="nonzero" fill="#e9f4ed"/><text style="fill:#191919;font-family:Times New Roman;font-size:13.00pt;font-weight:bold" xml:space="preserve"><tspan x="24.4" y="20.0">Backend Video</tspan><tspan x="19.4" y="40.0">Stimuli Control</tspan></text></g><g transform="translate(603.063530,182.682900)" id="shape50"><path stroke="#191919" d="M.0,.0L.0,29.1" stroke-width="4" fill="none"/><path stroke="#191919" d="M6.0,29.1L.0,41.1L-6.0,29.1L6.0,29.1" stroke-width="1" fill="#191919" stroke-linecap="round"/></g><g transform="translate(662.238524,259.164500)" id="shape52"><path stroke="#191919" d="M.0,.0L21.1,.0" stroke-width="4" fill="none"/><path stroke="#191919" d="M21.1,-6.0L33.1,.0L21.1,6.0L21.1,-6.0" stroke-width="1" fill="#191919" stroke-linecap="round"/></g><g transform="translate(662.238524,370.849420)" id="shape53"><path stroke="#191919" d="M.0,.0L21.1,.0" stroke-width="4" fill="none"/><path stroke="#191919" d="M21.1,-6.0L33.1,.0L21.1,6.0L21.1,-6.0" stroke-width="1" fill="#191919" stroke-linecap="round"/></g><g transform="translate(800.270200,266.161200)" id="shape54"><path stroke="#191919" d="M.0,.0L-0.0,186.9" stroke-width="4" fill="none"/><path stroke="#191919" d="M6.0,186.9L-0.0,198.9L-6.0,186.9L6.0,186.9" stroke-width="1" fill="#191919" stroke-linecap="round"/></g><g transform="translate(991.270000,529.850500)" id="shape55"><path stroke="#191919" d="M.0,.0L.0,-99.4" stroke-width="4" fill="none"/><path stroke="#191919" d="M-6.0,-99.4L.0,-111.4L6.0,-99.4L-6.0,-99.4" stroke-width="1" fill="#191919" stroke-linecap="round"/></g><g transform="translate(1183.270000,529.850500)" id="shape56"><path stroke="#191919" d="M.0,.0L.0,-109.8L-0.3,-109.8" stroke-width="4" fill="none"/><path stroke="#191919" d="M-6.3,-99.4L-0.3,-111.4L5.7,-99.4L-6.3,-99.4" stroke-width="1" fill="#191919" stroke-linecap="round"/></g><g transform="translate(1375.270000,529.850500)" id="shape57"><path stroke="#191919" d="M.0,.0L.0,-99.4" stroke-width="4" fill="none"/><path stroke="#191919" d="M-6.0,-99.4L.0,-111.4L6.0,-99.4L-6.0,-99.4" stroke-width="1" fill="#191919" stroke-linecap="round"/></g><g transform="translate(1567.270000,529.850500)" id="shape58"><path stroke="#191919" d="M.0,.0L.0,-73.2L-0.1,-73.2L-0.1,-99.4" stroke-width="4" fill="none"/><path stroke="#191919" d="M-6.1,-99.4L-0.1,-111.4L5.9,-99.4L-6.1,-99.4" stroke-width="1" fill="#191919" stroke-linecap="round"/></g><g transform="translate(991.270000,287.120500)" id="shape59"><path stroke="#191919" d="M.0,.0L.0,-37.9" stroke-width="4" fill="none"/><path stroke="#191919" d="M-6.0,-37.9L.0,-49.9L6.0,-37.9L-6.0,-37.9" stroke-width="1" fill="#191919" stroke-linecap="round"/></g><g transform="translate(1182.990000,287.120500)" id="shape60"><path stroke="#191919" d="M.0,.0L.0,-24.9L-0.1,-24.9L-0.1,-37.9" stroke-width="4" fill="none"/><path stroke="#191919" d="M-6.1,-37.9L-0.1,-49.9L5.9,-37.9L-6.1,-37.9" stroke-width="1" fill="#191919" stroke-linecap="round"/></g><g transform="translate(1375.340000,287.120500)" id="shape61"><path stroke="#191919" d="M.0,.0L.0,-24.9L-0.1,-24.9L-0.1,-37.9" stroke-width="4" fill="none"/><path stroke="#191919" d="M-6.1,-37.9L-0.1,-49.9L5.9,-37.9L-6.1,-37.9" stroke-width="1" fill="#191919" stroke-linecap="round"/></g><g transform="translate(1567.270000,287.120500)" id="shape62"><path stroke="#191919" d="M.0,.0L.0,-37.9" stroke-width="4" fill="none"/><path stroke="#191919" d="M-6.0,-37.9L.0,-49.9L6.0,-37.9L-6.0,-37.9" stroke-width="1" fill="#191919" stroke-linecap="round"/></g><g transform="translate(1674.440000,259.350500)" id="shape63"><path stroke="#191919" d="M12.0,.0L25.6,-0.0" stroke-width="4" fill="none"/><path stroke="#191919" d="M12.0,6.0L.0,.0L12.0,-6.0L12.0,6.0" stroke-width="1" fill="#191919" stroke-linecap="round"/><path stroke="#191919" d="M25.6,-6.0L37.6,-0.0L25.6,6.0L25.6,-6.0" stroke-width="1" fill="#191919" stroke-linecap="round"/></g><g transform="translate(1673.877600,613.376500)" id="shape64"><path stroke="#191919" d="M12.0,-0.1L26.1,-0.1" stroke-width="4" fill="none"/><path stroke="#191919" d="M12.0,5.9L.0,.0L12.0,-6.1L12.0,5.9" stroke-width="1" fill="#191919" stroke-linecap="round"/><path stroke="#191919" d="M26.1,-6.1L38.1,-0.2L26.2,5.9L26.1,-6.1" stroke-width="1" fill="#191919" stroke-linecap="round"/></g></g></svg>