<svg xmlns="http://www.w3.org/2000/svg" viewBox="0 0 1304 718" xmlns:xlink="http://www.w3.org/1999/xlink" width="1304" height="718"><defs/><g transform="translate(-766.52,-149.00)"><path fill="#ffffff" transform="translate(766.519685,149.000000)" fill-rule="nonzero" fill-opacity="0.75" d="M1304.0,711.0L1304.0,7.0C1304.0,3.1,1300.9,.0,1297.0,.0L7.0,.0C3.1,.0,.0,3.1,.0,7.0L.0,711.0C.0,714.9,3.1,718.0,7.0,718.0L1297.0,718.0C1300.9,718.0,1304.0,714.9,1304.0,711.0z" id="shape1"/><g transform="translate(781.714028,220.850444)" id="shape2"><path fill="#a5efff" stroke="#323232" fill-rule="nonzero" stroke-width="1" d="M118.3,63.8L118.3,7.0C118.3,3.1,115.2,.0,111.3,.0L7.0,.0C3.1,.0,.0,3.1,.0,7.0L.0,63.8C.0,67.7,3.1,70.8,7.0,70.8L111.3,70.8C115.2,70.8,118.3,67.7,118.3,63.8z"/><text style="fill:#191919;font-family:Times New Roman;font-size:14.00pt;font-weight:bold" xml:space="preserve"><tspan y="41.9" x="21.2">Muse S/2</tspan></text></g><g transform="translate(781.714028,444.432444)" id="shape3"><path fill="#a5efff" stroke="#323232" fill-rule="nonzero" stroke-width="1" d="M118.3,63.8L118.3,7.0C118.3,3.1,115.2,.0,111.3,.0L7.0,.0C3.1,.0,.0,3.1,.0,7.0L.0,63.8C.0,67.7,3.1,70.8,7.0,70.8L111.3,70.8C115.2,70.8,118.3,67.7,118.3,63.8z"/><text style="fill:#191919;font-family:Times New Roman;font-size:14.00pt;font-weight:bold" xml:space="preserve"><tspan y="41.9" x="23.7">Webcam</tspan></text></g><g transform="translate(781.714028,332.748444)" id="shape4"><path fill="#f1c3dc" stroke="#323232" fill-rule="nonzero" stroke-width="1" d="M118.3,63.8L118.3,7.0C118.3,3.1,115.2,.0,111.3,.0L7.0,.0C3.1,.0,.0,3.1,.0,7.0L.0,63.8C.0,67.7,3.1,70.8,7.0,70.8L111.3,70.8C115.2,70.8,118.3,67.7,118.3,63.8z"/><text style="fill:#191919;font-family:Times New Roman;font-size:14.00pt;font-weight:bold" xml:space="preserve"><tspan y="30.4" x="18.2">BlueMuse</tspan><tspan y="53.4" x="35.7">(LSL)</tspan></text></g><path fill="none" transform="translate(933.265028,186.850644)" stroke="#2e8d5d" stroke-dasharray="6,4" stroke-width="2.666670083999634" d="M979.0,356.0L979.0,7.0C979.0,3.1,975.9,.0,972.0,.0L7.0,.0C3.1,.0,.0,3.1,.0,7.0L.0,356.0C.0,359.9,3.1,363.0,7.0,363.0L972.0,363.0C975.9,363.0,979.0,359.9,979.0,356.0z" id="shape5"/><g transform="translate(1949.845028,161.850644)" id="shape6"><path fill="#efefef" stroke="#000000" fill-rule="nonzero" stroke-width="1" d="M104.0,681.0L104.0,7.0C104.0,3.1,100.9,.0,97.0,.0L7.0,.0C3.1,.0,.0,3.1,.0,7.0L.0,681.0C.0,684.9,3.1,688.0,7.0,688.0L97.0,688.0C100.9,688.0,104.0,684.9,104.0,681.0z"/><text style="fill:#191919;font-family:Times New Roman;font-size:14.00pt;font-weight:bold" xml:space="preserve"><tspan y="350.5" x="17.5">Memory</tspan></text></g><path fill="#f5cfcf" transform="translate(946.206428,671.850644)" stroke="#a83132" fill-rule="nonzero" stroke-width="2.666670083999634" d="M183.6,68.0L183.6,7.0C183.6,3.1,180.5,.0,176.6,.0L7.0,.0C3.1,.0,.0,3.1,.0,7.0L.0,68.0C.0,71.9,3.1,75.0,7.0,75.0L176.6,75.0C180.5,75.0,183.6,71.9,183.6,68.0z" id="shape7"/><g transform="translate(959.207728,638.850644)" id="shape8"><path fill="#f5cfcf" stroke="#a83132" fill-rule="nonzero" stroke-width="2.666670083999634" d="M157.8,41.0L157.8,7.0C157.8,3.1,154.6,.0,150.8,.0L7.0,.0C3.1,.0,.0,3.1,.0,7.0L.0,41.0C.0,44.9,3.1,48.0,7.0,48.0L150.8,48.0C154.6,48.0,157.8,44.9,157.8,41.0z"/><text style="fill:#191919;font-family:Times New Roman;font-size:13.00pt;font-weight:bold" xml:space="preserve"><tspan y="30.0" x="5.9">Subject Description</tspan></text></g><g transform="translate(959.207728,695.850644)" id="shape9"><path fill="#ffffff" stroke="#323232" fill-rule="nonzero" stroke-width="1" d="M157.8,26.0L157.8,7.0C157.8,3.1,154.6,.0,150.8,.0L7.0,.0C3.1,.0,.0,3.1,.0,7.0L.0,26.0C.0,29.9,3.1,33.0,7.0,33.0L150.8,33.0C154.6,33.0,157.8,29.9,157.8,26.0z"/><text style="fill:#191919;font-family:Times New Roman;font-size:15.00pt" xml:space="preserve"><tspan y="23.0" x="51.4">Submit</tspan></text></g><path fill="#f5cfcf" transform="translate(1137.206528,671.850644)" stroke="#a83132" fill-rule="nonzero" stroke-width="2.666670083999634" d="M183.6,154.0L183.6,7.0C183.6,3.1,180.5,.0,176.6,.0L7.0,.0C3.1,.0,.0,3.1,.0,7.0L.0,154.0C.0,157.9,3.1,161.0,7.0,161.0L176.6,161.0C180.5,161.0,183.6,157.9,183.6,154.0z" id="shape10"/><g transform="translate(1150.207528,638.850644)" id="shape11"><path fill="#f5cfcf" stroke="#a83132" fill-rule="nonzero" stroke-width="2.666670083999634" d="M157.8,41.0L157.8,7.0C157.8,3.1,154.6,.0,150.8,.0L7.0,.0C3.1,.0,.0,3.1,.0,7.0L.0,41.0C.0,44.9,3.1,48.0,7.0,48.0L150.8,48.0C154.6,48.0,157.8,44.9,157.8,41.0z"/><text style="fill:#191919;font-family:Times New Roman;font-size:13.00pt;font-weight:bold" xml:space="preserve"><tspan y="30.0" x="5.4">RGB Video Control</tspan></text></g><g transform="translate(1150.207728,695.850644)" id="shape12"><path fill="#ffffff" stroke="#323232" fill-rule="nonzero" stroke-width="1" d="M157.8,26.0L157.8,7.0C157.8,3.1,154.6,.0,150.8,.0L7.0,.0C3.1,.0,.0,3.1,.0,7.0L.0,26.0C.0,29.9,3.1,33.0,7.0,33.0L150.8,33.0C154.6,33.0,157.8,29.9,157.8,26.0z"/><text style="fill:#191919;font-family:Times New Roman;font-size:15.00pt" xml:space="preserve"><tspan y="23.0" x="42.4">Visualize</tspan></text></g><g transform="translate(1150.137728,737.850644)" id="shape13"><path fill="#ffffff" stroke="#323232" fill-rule="nonzero" stroke-width="1" d="M157.8,26.0L157.8,7.0C157.8,3.1,154.6,.0,150.8,.0L7.0,.0C3.1,.0,.0,3.1,.0,7.0L.0,26.0C.0,29.9,3.1,33.0,7.0,33.0L150.8,33.0C154.6,33.0,157.8,29.9,157.8,26.0z"/><text style="fill:#191919;font-family:Times New Roman;font-size:15.00pt" xml:space="preserve"><tspan y="23.0" x="16.9">Start Recording</tspan></text></g><g transform="translate(1150.137728,779.850644)" id="shape14"><path fill="#ffffff" stroke="#323232" fill-rule="nonzero" stroke-width="1" d="M157.8,26.0L157.8,7.0C157.8,3.1,154.6,.0,150.8,.0L7.0,.0C3.1,.0,.0,3.1,.0,7.0L.0,26.0C.0,29.9,3.1,33.0,7.0,33.0L150.8,33.0C154.6,33.0,157.8,29.9,157.8,26.0z"/><text style="fill:#191919;font-family:Times New Roman;font-size:15.00pt" xml:space="preserve"><tspan y="23.0" x="17.4">Stop Recording</tspan></text></g><path fill="#f5cfcf" transform="translate(1329.206528,671.850644)" stroke="#a83132" fill-rule="nonzero" stroke-width="2.666670083999634" d="M183.6,154.0L183.6,7.0C183.6,3.1,180.5,.0,176.6,.0L7.0,.0C3.1,.0,.0,3.1,.0,7.0L.0,154.0C.0,157.9,3.1,161.0,7.0,161.0L176.6,161.0C180.5,161.0,183.6,157.9,183.6,154.0z" id="shape15"/><g transform="translate(1342.207728,638.850644)" id="shape16"><path fill="#f5cfcf" stroke="#a83132" fill-rule="nonzero" stroke-width="2.666670083999634" d="M157.8,41.0L157.8,7.0C157.8,3.1,154.6,.0,150.8,.0L7.0,.0C3.1,.0,.0,3.1,.0,7.0L.0,41.0C.0,44.9,3.1,48.0,7.0,48.0L150.8,48.0C154.6,48.0,157.8,44.9,157.8,41.0z"/><text style="fill:#191919;font-family:Times New Roman;font-size:13.00pt;font-weight:bold" xml:space="preserve"><tspan y="30.0" x="27.4">Muse Control</tspan></text></g><g transform="translate(1342.207728,695.850644)" id="shape17"><path fill="#ffffff" stroke="#323232" fill-rule="nonzero" stroke-width="1" d="M157.8,26.0L157.8,7.0C157.8,3.1,154.6,.0,150.8,.0L7.0,.0C3.1,.0,.0,3.1,.0,7.0L.0,26.0C.0,29.9,3.1,33.0,7.0,33.0L150.8,33.0C154.6,33.0,157.8,29.9,157.8,26.0z"/><text style="fill:#191919;font-family:Times New Roman;font-size:15.00pt" xml:space="preserve"><tspan y="23.0" x="42.4">Visualize</tspan></text></g><g transform="translate(1342.137728,737.850644)" id="shape18"><path fill="#ffffff" stroke="#323232" fill-rule="nonzero" stroke-width="1" d="M157.8,26.0L157.8,7.0C157.8,3.1,154.6,.0,150.8,.0L7.0,.0C3.1,.0,.0,3.1,.0,7.0L.0,26.0C.0,29.9,3.1,33.0,7.0,33.0L150.8,33.0C154.6,33.0,157.8,29.9,157.8,26.0z"/><text style="fill:#191919;font-family:Times New Roman;font-size:15.00pt" xml:space="preserve"><tspan y="23.0" x="16.9">Start Recording</tspan></text></g><g transform="translate(1342.137728,779.850644)" id="shape19"><path fill="#ffffff" stroke="#323232" fill-rule="nonzero" stroke-width="1" d="M157.8,26.0L157.8,7.0C157.8,3.1,154.6,.0,150.8,.0L7.0,.0C3.1,.0,.0,3.1,.0,7.0L.0,26.0C.0,29.9,3.1,33.0,7.0,33.0L150.8,33.0C154.6,33.0,157.8,29.9,157.8,26.0z"/><text style="fill:#191919;font-family:Times New Roman;font-size:15.00pt" xml:space="preserve"><tspan y="23.0" x="17.4">Stop Recording</tspan></text></g><path fill="#f5cfcf" transform="translate(1521.206528,671.850644)" stroke="#a83132" fill-rule="nonzero" stroke-width="2.666670083999634" d="M183.6,154.0L183.6,7.0C183.6,3.1,180.5,.0,176.6,.0L7.0,.0C3.1,.0,.0,3.1,.0,7.0L.0,154.0C.0,157.9,3.1,161.0,7.0,161.0L176.6,161.0C180.5,161.0,183.6,157.9,183.6,154.0z" id="shape20"/><g transform="translate(1534.207528,638.850644)" id="shape21"><path fill="#f5cfcf" stroke="#a83132" fill-rule="nonzero" stroke-width="2.666670083999634" d="M157.8,41.0L157.8,7.0C157.8,3.1,154.6,.0,150.8,.0L7.0,.0C3.1,.0,.0,3.1,.0,7.0L.0,41.0C.0,44.9,3.1,48.0,7.0,48.0L150.8,48.0C154.6,48.0,157.8,44.9,157.8,41.0z"/><text style="fill:#191919;font-family:Times New Roman;font-size:13.00pt;font-weight:bold" xml:space="preserve"><tspan y="20.0" x="26.4">Image Stimuli </tspan><tspan y="40.0" x="49.4">Control</tspan></text></g><g transform="translate(1534.207728,695.850644)" id="shape22"><path fill="#ffffff" stroke="#323232" fill-rule="nonzero" stroke-width="1" d="M157.8,26.0L157.8,7.0C157.8,3.1,154.6,.0,150.8,.0L7.0,.0C3.1,.0,.0,3.1,.0,7.0L.0,26.0C.0,29.9,3.1,33.0,7.0,33.0L150.8,33.0C154.6,33.0,157.8,29.9,157.8,26.0z"/><text style="fill:#191919;font-family:Times New Roman;font-size:15.00pt" xml:space="preserve"><tspan y="23.0" x="29.9">Load Config</tspan></text></g><g transform="translate(1534.137728,737.850644)" id="shape23"><path fill="#ffffff" stroke="#323232" fill-rule="nonzero" stroke-width="1" d="M157.8,26.0L157.8,7.0C157.8,3.1,154.6,.0,150.8,.0L7.0,.0C3.1,.0,.0,3.1,.0,7.0L.0,26.0C.0,29.9,3.1,33.0,7.0,33.0L150.8,33.0C154.6,33.0,157.8,29.9,157.8,26.0z"/><text style="fill:#191919;font-family:Times New Roman;font-size:15.00pt" xml:space="preserve"><tspan y="23.0" x="30.4">Save Config</tspan></text></g><g transform="translate(1534.137728,779.850644)" id="shape24"><path fill="#ffffff" stroke="#323232" fill-rule="nonzero" stroke-width="1" d="M157.8,26.0L157.8,7.0C157.8,3.1,154.6,.0,150.8,.0L7.0,.0C3.1,.0,.0,3.1,.0,7.0L.0,26.0C.0,29.9,3.1,33.0,7.0,33.0L150.8,33.0C154.6,33.0,157.8,29.9,157.8,26.0z"/><text style="fill:#191919;font-family:Times New Roman;font-size:15.00pt" xml:space="preserve"><tspan y="23.0" x="29.4">Start Stimuli</tspan></text></g><path fill="#f5cfcf" transform="translate(1713.206528,671.850644)" stroke="#a83132" fill-rule="nonzero" stroke-width="2.666670083999634" d="M183.6,154.0L183.6,7.0C183.6,3.1,180.5,.0,176.6,.0L7.0,.0C3.1,.0,.0,3.1,.0,7.0L.0,154.0C.0,157.9,3.1,161.0,7.0,161.0L176.6,161.0C180.5,161.0,183.6,157.9,183.6,154.0z" id="shape25"/><g transform="translate(1726.207528,638.850644)" id="shape26"><path fill="#f5cfcf" stroke="#a83132" fill-rule="nonzero" stroke-width="2.666670083999634" d="M157.8,41.0L157.8,7.0C157.8,3.1,154.6,.0,150.8,.0L7.0,.0C3.1,.0,.0,3.1,.0,7.0L.0,41.0C.0,44.9,3.1,48.0,7.0,48.0L150.8,48.0C154.6,48.0,157.8,44.9,157.8,41.0z"/><text style="fill:#191919;font-family:Times New Roman;font-size:13.00pt;font-weight:bold" xml:space="preserve"><tspan y="20.0" x="27.9">Video Stimuli </tspan><tspan y="40.0" x="49.4">Control</tspan></text></g><g transform="translate(1726.207728,695.850644)" id="shape27"><path fill="#ffffff" stroke="#323232" fill-rule="nonzero" stroke-width="1" d="M157.8,26.0L157.8,7.0C157.8,3.1,154.6,.0,150.8,.0L7.0,.0C3.1,.0,.0,3.1,.0,7.0L.0,26.0C.0,29.9,3.1,33.0,7.0,33.0L150.8,33.0C154.6,33.0,157.8,29.9,157.8,26.0z"/><text style="fill:#191919;font-family:Times New Roman;font-size:15.00pt" xml:space="preserve"><tspan y="23.0" x="29.9">Load Config</tspan></text></g><g transform="translate(1726.137728,737.850644)" id="shape28"><path fill="#ffffff" stroke="#323232" fill-rule="nonzero" stroke-width="1" d="M157.8,26.0L157.8,7.0C157.8,3.1,154.6,.0,150.8,.0L7.0,.0C3.1,.0,.0,3.1,.0,7.0L.0,26.0C.0,29.9,3.1,33.0,7.0,33.0L150.8,33.0C154.6,33.0,157.8,29.9,157.8,26.0z"/><text style="fill:#191919;font-family:Times New Roman;font-size:15.00pt" xml:space="preserve"><tspan y="23.0" x="30.4">Save Config</tspan></text></g><g transform="translate(1726.137728,779.850644)" id="shape29"><path fill="#ffffff" stroke="#323232" fill-rule="nonzero" stroke-width="1" d="M157.8,26.0L157.8,7.0C157.8,3.1,154.6,.0,150.8,.0L7.0,.0C3.1,.0,.0,3.1,.0,7.0L.0,26.0C.0,29.9,3.1,33.0,7.0,33.0L150.8,33.0C154.6,33.0,157.8,29.9,157.8,26.0z"/><text style="fill:#191919;font-family:Times New Roman;font-size:15.00pt" xml:space="preserve"><tspan y="23.0" x="29.4">Start Stimuli</tspan></text></g><path fill="none" transform="translate(933.266028,594.901644)" stroke="#a83132" stroke-dasharray="6,4" stroke-width="2.666670083999634" d="M978.4,247.9L978.4,7.0C978.4,3.1,975.3,.0,971.4,.0L7.0,.0C3.1,.0,.0,3.1,.0,7.0L.0,247.9C.0,251.8,3.1,254.9,7.0,254.9L971.4,254.9C975.3,254.9,978.4,251.8,978.4,247.9z" id="shape30"/><g transform="translate(933.265028,574.015144)" id="shape31"><path fill="#f5cfcf" stroke="#a83132" fill-rule="nonzero" stroke-width="2.666670083999634" d="M979.0,37.8L979.0,7.0C979.0,3.1,975.9,.0,972.0,.0L7.0,.0C3.1,.0,.0,3.1,.0,7.0L.0,37.8C.0,41.7,3.1,44.8,7.0,44.8L972.0,44.8C975.9,44.8,979.0,41.7,979.0,37.8z"/><text style="fill:#191919;font-family:Times New Roman;font-size:14.00pt;font-weight:bold" xml:space="preserve"><tspan y="28.9" x="4.0">      Web based GUI (html, csss, js)</tspan></text></g><g transform="translate(1328.926528,272.748644)" id="shape32"><path fill="#e9f4ed" stroke="#2e8d5d" fill-rule="nonzero" stroke-width="2.666670083999634" d="M183.6,66.5L183.6,7.0C183.6,3.1,180.5,.0,176.6,.0L7.0,.0C3.1,.0,.0,3.1,.0,7.0L.0,66.5C.0,70.4,3.1,73.5,7.0,73.5L176.6,73.5C180.5,73.5,183.6,70.4,183.6,66.5z"/><text style="fill:#191919;font-family:Times New Roman;font-size:15.00pt" xml:space="preserve"><tspan y="41.5" x="46.3">Show Live </tspan><tspan y="64.5" x="51.8">EEG Data</tspan></text></g><g transform="translate(1341.927728,239.748644)" id="shape33"><path fill="#e9f4ed" stroke="#2e8d5d" fill-rule="nonzero" stroke-width="2.666670083999634" d="M157.8,41.0L157.8,7.0C157.8,3.1,154.6,.0,150.8,.0L7.0,.0C3.1,.0,.0,3.1,.0,7.0L.0,41.0C.0,44.9,3.1,48.0,7.0,48.0L150.8,48.0C154.6,48.0,157.8,44.9,157.8,41.0z"/><text style="fill:#191919;font-family:Times New Roman;font-size:13.00pt;font-weight:bold" xml:space="preserve"><tspan y="20.0" x="20.9">ShowMuseFeed </tspan><tspan y="40.0" x="62.9">GUI</tspan></text></g><g transform="translate(1137.276528,272.748644)" id="shape34"><path fill="#e9f4ed" stroke="#2e8d5d" fill-rule="nonzero" stroke-width="2.666670083999634" d="M183.6,66.5L183.6,7.0C183.6,3.1,180.5,.0,176.6,.0L7.0,.0C3.1,.0,.0,3.1,.0,7.0L.0,66.5C.0,70.4,3.1,73.5,7.0,73.5L176.6,73.5C180.5,73.5,183.6,70.4,183.6,66.5z"/><text style="fill:#191919;font-family:Times New Roman;font-size:15.00pt" xml:space="preserve"><tspan y="42.0" x="46.3">Show Live </tspan><tspan y="65.0" x="47.3">Video Data</tspan></text></g><g transform="translate(1150.277728,239.748644)" id="shape35"><path fill="#e9f4ed" stroke="#2e8d5d" fill-rule="nonzero" stroke-width="2.666670083999634" d="M157.8,41.0L157.8,7.0C157.8,3.1,154.6,.0,150.8,.0L7.0,.0C3.1,.0,.0,3.1,.0,7.0L.0,41.0C.0,44.9,3.1,48.0,7.0,48.0L150.8,48.0C154.6,48.0,157.8,44.9,157.8,41.0z"/><text style="fill:#191919;font-family:Times New Roman;font-size:13.00pt;font-weight:bold" xml:space="preserve"><tspan y="20.0" x="19.9">ShowVideoFeed </tspan><tspan y="40.0" x="62.9">GUI</tspan></text></g><g transform="translate(1713.276528,272.748644)" id="shape36"><path fill="#e9f4ed" stroke="#2e8d5d" fill-rule="nonzero" stroke-width="2.666670083999634" d="M183.6,66.5L183.6,7.0C183.6,3.1,180.5,.0,176.6,.0L7.0,.0C3.1,.0,.0,3.1,.0,7.0L.0,66.5C.0,70.4,3.1,73.5,7.0,73.5L176.6,73.5C180.5,73.5,183.6,70.4,183.6,66.5z"/><text style="fill:#191919;font-family:Times New Roman;font-size:15.00pt" xml:space="preserve"><tspan y="42.0" x="43.3">Show Video</tspan><tspan y="65.0" x="52.3">as Stimuli</tspan></text></g><g transform="translate(1726.277728,239.748644)" id="shape37"><path fill="#e9f4ed" stroke="#2e8d5d" fill-rule="nonzero" stroke-width="2.666670083999634" d="M157.8,41.0L157.8,7.0C157.8,3.1,154.6,.0,150.8,.0L7.0,.0C3.1,.0,.0,3.1,.0,7.0L.0,41.0C.0,44.9,3.1,48.0,7.0,48.0L150.8,48.0C154.6,48.0,157.8,44.9,157.8,41.0z"/><text style="fill:#191919;font-family:Times New Roman;font-size:13.00pt;font-weight:bold" xml:space="preserve"><tspan y="20.0" x="14.4">StartVideoStimul </tspan><tspan y="40.0" x="62.9">GUI</tspan></text></g><g transform="translate(1521.206528,272.748644)" id="shape38"><path fill="#e9f4ed" stroke="#2e8d5d" fill-rule="nonzero" stroke-width="2.666670083999634" d="M183.6,66.5L183.6,7.0C183.6,3.1,180.5,.0,176.6,.0L7.0,.0C3.1,.0,.0,3.1,.0,7.0L.0,66.5C.0,70.4,3.1,73.5,7.0,73.5L176.6,73.5C180.5,73.5,183.6,70.4,183.6,66.5z"/><text style="fill:#191919;font-family:Times New Roman;font-size:15.00pt" xml:space="preserve"><tspan y="42.0" x="38.3">Show  Image </tspan><tspan y="65.0" x="52.3">as Stimuli</tspan></text></g><g transform="translate(1534.207728,239.748644)" id="shape39"><path fill="#e9f4ed" stroke="#2e8d5d" fill-rule="nonzero" stroke-width="2.666670083999634" d="M157.8,41.0L157.8,7.0C157.8,3.1,154.6,.0,150.8,.0L7.0,.0C3.1,.0,.0,3.1,.0,7.0L.0,41.0C.0,44.9,3.1,48.0,7.0,48.0L150.8,48.0C154.6,48.0,157.8,44.9,157.8,41.0z"/><text style="fill:#191919;font-family:Times New Roman;font-size:13.00pt;font-weight:bold" xml:space="preserve"><tspan y="20.0" x="12.9">StartImageStimul </tspan><tspan y="40.0" x="62.9">GUI</tspan></text></g><g transform="translate(933.195028,161.850144)" id="shape40"><path fill="#e9f4ed" stroke="#2e8d5d" fill-rule="nonzero" stroke-width="2.666670083999634" d="M979.0,41.0L979.0,7.0C979.0,3.1,975.9,.0,972.0,.0L7.0,.0C3.1,.0,.0,3.1,.0,7.0L.0,41.0C.0,44.9,3.1,48.0,7.0,48.0L972.0,48.0C975.9,48.0,979.0,44.9,979.0,41.0z"/><text style="fill:#191919;font-family:Times New Roman;font-size:14.00pt;font-weight:bold" xml:space="preserve"><tspan y="30.5" x="398.0">Python based backend</tspan></text></g><g transform="translate(946.276528,276.836244)" id="shape41"><path fill="#e9f4ed" stroke="#2e8d5d" fill-rule="nonzero" stroke-width="2.666670083999634" d="M183.6,91.3L183.6,7.0C183.6,3.1,180.5,.0,176.6,.0L7.0,.0C3.1,.0,.0,3.1,.0,7.0L.0,91.3C.0,95.2,3.1,98.3,7.0,98.3L176.6,98.3C180.5,98.3,183.6,95.2,183.6,91.3z"/><text style="fill:#191919;font-family:Times New Roman;font-size:15.00pt" xml:space="preserve"><tspan y="43.3" x="38.8">Muse Setup()</tspan><tspan y="66.3" x="26.8">Webcam Setup()</tspan><tspan y="89.3" x="38.8">Flask Setup()</tspan></text></g><g transform="translate(959.277728,243.835644)" id="shape42"><path fill="#e9f4ed" stroke="#2e8d5d" fill-rule="nonzero" stroke-width="2.666670083999634" d="M157.8,41.0L157.8,7.0C157.8,3.1,154.6,.0,150.8,.0L7.0,.0C3.1,.0,.0,3.1,.0,7.0L.0,41.0C.0,44.9,3.1,48.0,7.0,48.0L150.8,48.0C154.6,48.0,157.8,44.9,157.8,41.0z"/><text style="fill:#191919;font-family:Times New Roman;font-size:13.00pt;font-weight:bold" xml:space="preserve"><tspan y="30.0" x="30.4">Initialization</tspan></text></g><g transform="translate(1137.206528,429.121244)" id="shape43"><path fill="#e9f4ed" stroke="#2e8d5d" fill-rule="nonzero" stroke-width="2.666670083999634" d="M183.6,91.3L183.6,7.0C183.6,3.1,180.5,.0,176.6,.0L7.0,.0C3.1,.0,.0,3.1,.0,7.0L.0,91.3C.0,95.2,3.1,98.3,7.0,98.3L176.6,98.3C180.5,98.3,183.6,95.2,183.6,91.3z"/><text style="fill:#191919;font-family:Times New Roman;font-size:15.00pt" xml:space="preserve"><tspan y="44.0" x="19.3">ShowVideoFeed()</tspan><tspan y="67.0" x="25.3">StartRecording()</tspan><tspan y="90.0" x="25.8">StopRecording()</tspan></text></g><g transform="translate(1150.207728,396.119644)" id="shape44"><path fill="#e9f4ed" stroke="#2e8d5d" fill-rule="nonzero" stroke-width="2.666670083999634" d="M157.8,41.0L157.8,7.0C157.8,3.1,154.6,.0,150.8,.0L7.0,.0C3.1,.0,.0,3.1,.0,7.0L.0,41.0C.0,44.9,3.1,48.0,7.0,48.0L150.8,48.0C154.6,48.0,157.8,44.9,157.8,41.0z"/><text style="fill:#191919;font-family:Times New Roman;font-size:13.00pt;font-weight:bold" xml:space="preserve"><tspan y="20.0" x="26.4">Backend RGB </tspan><tspan y="40.0" x="26.4">Video Control</tspan></text></g><g transform="translate(1328.926528,429.121244)" id="shape45"><path fill="#e9f4ed" stroke="#2e8d5d" fill-rule="nonzero" stroke-width="2.666670083999634" d="M183.6,91.3L183.6,7.0C183.6,3.1,180.5,.0,176.6,.0L7.0,.0C3.1,.0,.0,3.1,.0,7.0L.0,91.3C.0,95.2,3.1,98.3,7.0,98.3L176.6,98.3C180.5,98.3,183.6,95.2,183.6,91.3z"/><text style="fill:#191919;font-family:Times New Roman;font-size:15.00pt" xml:space="preserve"><tspan y="44.0" x="21.3">ShowMuseFeed()</tspan><tspan y="67.0" x="25.3">StartRecording()</tspan><tspan y="90.0" x="25.8">StopRecording()</tspan></text></g><g transform="translate(1341.927728,396.119644)" id="shape46"><path fill="#e9f4ed" stroke="#2e8d5d" fill-rule="nonzero" stroke-width="2.666670083999634" d="M157.8,41.0L157.8,7.0C157.8,3.1,154.6,.0,150.8,.0L7.0,.0C3.1,.0,.0,3.1,.0,7.0L.0,41.0C.0,44.9,3.1,48.0,7.0,48.0L150.8,48.0C154.6,48.0,157.8,44.9,157.8,41.0z"/><text style="fill:#191919;font-family:Times New Roman;font-size:13.00pt;font-weight:bold" xml:space="preserve"><tspan y="20.0" x="25.4">Backend Muse </tspan><tspan y="40.0" x="49.4">Control</tspan></text></g><g transform="translate(1521.276528,429.121244)" id="shape47"><path fill="#e9f4ed" stroke="#2e8d5d" fill-rule="nonzero" stroke-width="2.666670083999634" d="M183.6,91.3L183.6,7.0C183.6,3.1,180.5,.0,176.6,.0L7.0,.0C3.1,.0,.0,3.1,.0,7.0L.0,91.3C.0,95.2,3.1,98.3,7.0,98.3L176.6,98.3C180.5,98.3,183.6,95.2,183.6,91.3z"/><text style="fill:#191919;font-family:Times New Roman;font-size:15.00pt" xml:space="preserve"><tspan y="44.0" x="38.3">LoadConfig()</tspan><tspan y="67.0" x="38.8">SaveConfig()</tspan><tspan y="90.0" x="14.3">StartImageStimuli()</tspan></text></g><g transform="translate(1534.277728,396.119644)" id="shape48"><path fill="#e9f4ed" stroke="#2e8d5d" fill-rule="nonzero" stroke-width="2.666670083999634" d="M157.8,41.0L157.8,7.0C157.8,3.1,154.6,.0,150.8,.0L7.0,.0C3.1,.0,.0,3.1,.0,7.0L.0,41.0C.0,44.9,3.1,48.0,7.0,48.0L150.8,48.0C154.6,48.0,157.8,44.9,157.8,41.0z"/><text style="fill:#191919;font-family:Times New Roman;font-size:13.00pt;font-weight:bold" xml:space="preserve"><tspan y="20.0" x="22.9">Backend Image </tspan><tspan y="40.0" x="19.4">Stimuli Control</tspan></text></g><g transform="translate(1713.206528,429.121244)" id="shape49"><path fill="#e9f4ed" stroke="#2e8d5d" fill-rule="nonzero" stroke-width="2.666670083999634" d="M183.6,91.3L183.6,7.0C183.6,3.1,180.5,.0,176.6,.0L7.0,.0C3.1,.0,.0,3.1,.0,7.0L.0,91.3C.0,95.2,3.1,98.3,7.0,98.3L176.6,98.3C180.5,98.3,183.6,95.2,183.6,91.3z"/><text style="fill:#191919;font-family:Times New Roman;font-size:15.00pt" xml:space="preserve"><tspan y="44.0" x="38.3">LoadConfig()</tspan><tspan y="67.0" x="38.8">SaveConfig()</tspan><tspan y="90.0" x="14.3">StartVideoStimuli()</tspan></text></g><g transform="translate(1726.207728,396.119644)" id="shape50"><path fill="#e9f4ed" stroke="#2e8d5d" fill-rule="nonzero" stroke-width="2.666670083999634" d="M157.8,41.0L157.8,7.0C157.8,3.1,154.6,.0,150.8,.0L7.0,.0C3.1,.0,.0,3.1,.0,7.0L.0,41.0C.0,44.9,3.1,48.0,7.0,48.0L150.8,48.0C154.6,48.0,157.8,44.9,157.8,41.0z"/><text style="fill:#191919;font-family:Times New Roman;font-size:13.00pt;font-weight:bold" xml:space="preserve"><tspan y="20.0" x="24.4">Backend Video</tspan><tspan y="40.0" x="19.4">Stimuli Control</tspan></text></g><g transform="translate(840.889028,291.682844)" id="shape51"><path fill="none" stroke="#191919" stroke-width="4" d="M.0,.0L.0,29.1"/><path fill="#191919" stroke="#191919" stroke-width="1" stroke-linecap="round" d="M6.0,29.1L.0,41.1L-6.0,29.1L6.0,29.1"/></g><g transform="translate(900.064028,368.164644)" id="shape53"><path fill="none" stroke="#191919" stroke-width="4" d="M.0,.0L21.1,.0"/><path fill="#191919" stroke="#191919" stroke-width="1" stroke-linecap="round" d="M21.1,-6.0L33.1,.0L21.1,6.0L21.1,-6.0"/></g><g transform="translate(900.064028,479.848644)" id="shape54"><path fill="none" stroke="#191919" stroke-width="4" d="M.0,.0L21.1,.0"/><path fill="#191919" stroke="#191919" stroke-width="1" stroke-linecap="round" d="M21.1,-6.0L33.1,.0L21.1,6.0L21.1,-6.0"/></g><g transform="translate(1038.095028,375.161044)" id="shape55"><path fill="none" stroke="#191919" stroke-width="4" d="M.0,.0L-0.0,186.9"/><path fill="#191919" stroke="#191919" stroke-width="1" stroke-linecap="round" d="M6.0,186.9L-0.0,198.9L-6.0,186.9L6.0,186.9"/></g><g transform="translate(1229.095028,638.850644)" id="shape56"><path fill="none" stroke="#191919" stroke-width="4" d="M.0,.0L.0,-99.4"/><path fill="#191919" stroke="#191919" stroke-width="1" stroke-linecap="round" d="M-6.0,-99.4L.0,-111.4L6.0,-99.4L-6.0,-99.4"/></g><g transform="translate(1421.095028,638.850644)" id="shape57"><path fill="none" stroke="#191919" stroke-width="4" d="M.0,.0L.0,-109.8L-0.3,-109.8"/><path fill="#191919" stroke="#191919" stroke-width="1" stroke-linecap="round" d="M-6.3,-99.4L-0.3,-111.4L5.7,-99.4L-6.3,-99.4"/></g><g transform="translate(1613.095028,638.850644)" id="shape58"><path fill="none" stroke="#191919" stroke-width="4" d="M.0,.0L.0,-99.4"/><path fill="#191919" stroke="#191919" stroke-width="1" stroke-linecap="round" d="M-6.0,-99.4L.0,-111.4L6.0,-99.4L-6.0,-99.4"/></g><g transform="translate(1805.095028,638.850644)" id="shape59"><path fill="none" stroke="#191919" stroke-width="4" d="M.0,.0L.0,-73.2L-0.1,-73.2L-0.1,-99.4"/><path fill="#191919" stroke="#191919" stroke-width="1" stroke-linecap="round" d="M-6.1,-99.4L-0.1,-111.4L5.9,-99.4L-6.1,-99.4"/></g><g transform="translate(1229.095028,396.119644)" id="shape60"><path fill="none" stroke="#191919" stroke-width="4" d="M.0,.0L.0,-37.9"/><path fill="#191919" stroke="#191919" stroke-width="1" stroke-linecap="round" d="M-6.0,-37.9L.0,-49.9L6.0,-37.9L-6.0,-37.9"/></g><g transform="translate(1420.815028,396.119644)" id="shape61"><path fill="none" stroke="#191919" stroke-width="4" d="M.0,.0L.0,-24.9L-0.1,-24.9L-0.1,-37.9"/><path fill="#191919" stroke="#191919" stroke-width="1" stroke-linecap="round" d="M-6.1,-37.9L-0.1,-49.9L5.9,-37.9L-6.1,-37.9"/></g><g transform="translate(1613.165028,396.119644)" id="shape62"><path fill="none" stroke="#191919" stroke-width="4" d="M.0,.0L.0,-24.9L-0.1,-24.9L-0.1,-37.9"/><path fill="#191919" stroke="#191919" stroke-width="1" stroke-linecap="round" d="M-6.1,-37.9L-0.1,-49.9L5.9,-37.9L-6.1,-37.9"/></g><g transform="translate(1805.095028,396.119644)" id="shape63"><path fill="none" stroke="#191919" stroke-width="4" d="M.0,.0L.0,-37.9"/><path fill="#191919" stroke="#191919" stroke-width="1" stroke-linecap="round" d="M-6.0,-37.9L.0,-49.9L6.0,-37.9L-6.0,-37.9"/></g><g transform="translate(1912.265028,368.350644)" id="shape64"><path fill="none" stroke="#191919" stroke-width="4" d="M12.0,.0L25.6,-0.0"/><path fill="#191919" stroke="#191919" stroke-width="1" stroke-linecap="round" d="M12.0,6.0L.0,.0L12.0,-6.0L12.0,6.0"/><path fill="#191919" stroke="#191919" stroke-width="1" stroke-linecap="round" d="M25.6,-6.0L37.6,-0.0L25.6,6.0L25.6,-6.0"/></g><g transform="translate(1911.704028,722.375644)" id="shape65"><path fill="none" stroke="#191919" stroke-width="4" d="M12.0,-0.1L38.1,-0.2"/><path fill="#191919" stroke="#191919" stroke-width="1" stroke-linecap="round" d="M12.0,5.9L.0,.0L12.0,-6.1L12.0,5.9"/></g></g></svg>