<svg height="703" xmlns="http://www.w3.org/2000/svg" xmlns:xlink="http://www.w3.org/1999/xlink" viewBox="0 0 1296 703" width="1296"><defs/><g transform="translate(-910.52,-166.00)"><path fill-rule="nonzero" fill="#ffffff" id="shape1" fill-opacity="0.60" d="M1295.7,696.0L1295.7,7.0C1295.7,3.1,1292.5,.0,1288.7,.0L7.0,.0C3.1,.0,.0,3.1,.0,7.0L.0,696.0C.0,699.9,3.1,703.0,7.0,703.0L1288.7,703.0C1292.5,703.0,1295.7,699.9,1295.7,696.0z" transform="translate(910.519685,166.000000)"/><g id="shape2" transform="translate(921.714028,232.850444)"><path fill-rule="nonzero" fill="#a5efff" stroke="#323232" stroke-width="1" d="M118.3,63.8L118.3,7.0C118.3,3.1,115.2,.0,111.3,.0L7.0,.0C3.1,.0,.0,3.1,.0,7.0L.0,63.8C.0,67.7,3.1,70.8,7.0,70.8L111.3,70.8C115.2,70.8,118.3,67.7,118.3,63.8z"/><text style="fill:#191919;font-family:Times New Roman;font-size:14.00pt;font-weight:bold" xml:space="preserve"><tspan y="41.9" x="21.2">Muse S/2</tspan></text></g><g id="shape3" transform="translate(921.714028,456.432444)"><path fill-rule="nonzero" fill="#a5efff" stroke="#323232" stroke-width="1" d="M118.3,63.8L118.3,7.0C118.3,3.1,115.2,.0,111.3,.0L7.0,.0C3.1,.0,.0,3.1,.0,7.0L.0,63.8C.0,67.7,3.1,70.8,7.0,70.8L111.3,70.8C115.2,70.8,118.3,67.7,118.3,63.8z"/><text style="fill:#191919;font-family:Times New Roman;font-size:14.00pt;font-weight:bold" xml:space="preserve"><tspan y="41.9" x="23.7">Webcam</tspan></text></g><g id="shape4" transform="translate(921.714028,344.748444)"><path fill-rule="nonzero" fill="#f1c3dc" stroke="#323232" stroke-width="1" d="M118.3,63.8L118.3,7.0C118.3,3.1,115.2,.0,111.3,.0L7.0,.0C3.1,.0,.0,3.1,.0,7.0L.0,63.8C.0,67.7,3.1,70.8,7.0,70.8L111.3,70.8C115.2,70.8,118.3,67.7,118.3,63.8z"/><text style="fill:#191919;font-family:Times New Roman;font-size:14.00pt;font-weight:bold" xml:space="preserve"><tspan y="30.4" x="18.2">BlueMuse</tspan><tspan y="53.4" x="35.7">(LSL)</tspan></text></g><path fill="none" id="shape5" stroke="#2e8d5d" stroke-width="2.666670083999634" stroke-dasharray="6,4" d="M979.0,356.0L979.0,7.0C979.0,3.1,975.9,.0,972.0,.0L7.0,.0C3.1,.0,.0,3.1,.0,7.0L.0,356.0C.0,359.9,3.1,363.0,7.0,363.0L972.0,363.0C975.9,363.0,979.0,359.9,979.0,356.0z" transform="translate(1073.265028,198.850644)"/><g id="shape6" transform="translate(2089.845028,173.850644)"><path fill-rule="nonzero" fill="#efefef" stroke="#000000" stroke-width="1" d="M104.0,681.0L104.0,7.0C104.0,3.1,100.9,.0,97.0,.0L7.0,.0C3.1,.0,.0,3.1,.0,7.0L.0,681.0C.0,684.9,3.1,688.0,7.0,688.0L97.0,688.0C100.9,688.0,104.0,684.9,104.0,681.0z"/><text style="fill:#191919;font-family:Times New Roman;font-size:14.00pt;font-weight:bold" xml:space="preserve"><tspan y="350.5" x="17.5">Memory</tspan></text></g><path fill-rule="nonzero" fill="#f5cfcf" id="shape7" stroke="#a83132" stroke-width="2.666670083999634" d="M183.6,68.0L183.6,7.0C183.6,3.1,180.5,.0,176.6,.0L7.0,.0C3.1,.0,.0,3.1,.0,7.0L.0,68.0C.0,71.9,3.1,75.0,7.0,75.0L176.6,75.0C180.5,75.0,183.6,71.9,183.6,68.0z" transform="translate(1086.206428,683.850644)"/><g id="shape8" transform="translate(1099.207728,650.850644)"><path fill-rule="nonzero" fill="#f5cfcf" stroke="#a83132" stroke-width="2.666670083999634" d="M157.8,41.0L157.8,7.0C157.8,3.1,154.6,.0,150.8,.0L7.0,.0C3.1,.0,.0,3.1,.0,7.0L.0,41.0C.0,44.9,3.1,48.0,7.0,48.0L150.8,48.0C154.6,48.0,157.8,44.9,157.8,41.0z"/><text style="fill:#191919;font-family:Times New Roman;font-size:13.00pt;font-weight:bold" xml:space="preserve"><tspan y="30.0" x="5.9">Subject Description</tspan></text></g><g id="shape9" transform="translate(1099.207728,707.850644)"><path fill-rule="nonzero" fill="#ffffff" stroke="#323232" stroke-width="1" d="M157.8,26.0L157.8,7.0C157.8,3.1,154.6,.0,150.8,.0L7.0,.0C3.1,.0,.0,3.1,.0,7.0L.0,26.0C.0,29.9,3.1,33.0,7.0,33.0L150.8,33.0C154.6,33.0,157.8,29.9,157.8,26.0z"/><text style="fill:#191919;font-family:Times New Roman;font-size:15.00pt" xml:space="preserve"><tspan y="23.0" x="51.4">Submit</tspan></text></g><path fill-rule="nonzero" fill="#f5cfcf" id="shape10" stroke="#a83132" stroke-width="2.666670083999634" d="M183.6,154.0L183.6,7.0C183.6,3.1,180.5,.0,176.6,.0L7.0,.0C3.1,.0,.0,3.1,.0,7.0L.0,154.0C.0,157.9,3.1,161.0,7.0,161.0L176.6,161.0C180.5,161.0,183.6,157.9,183.6,154.0z" transform="translate(1277.206528,683.850644)"/><g id="shape11" transform="translate(1290.207528,650.850644)"><path fill-rule="nonzero" fill="#f5cfcf" stroke="#a83132" stroke-width="2.666670083999634" d="M157.8,41.0L157.8,7.0C157.8,3.1,154.6,.0,150.8,.0L7.0,.0C3.1,.0,.0,3.1,.0,7.0L.0,41.0C.0,44.9,3.1,48.0,7.0,48.0L150.8,48.0C154.6,48.0,157.8,44.9,157.8,41.0z"/><text style="fill:#191919;font-family:Times New Roman;font-size:13.00pt;font-weight:bold" xml:space="preserve"><tspan y="30.0" x="5.4">RGB Video Control</tspan></text></g><g id="shape12" transform="translate(1290.207728,707.850644)"><path fill-rule="nonzero" fill="#ffffff" stroke="#323232" stroke-width="1" d="M157.8,26.0L157.8,7.0C157.8,3.1,154.6,.0,150.8,.0L7.0,.0C3.1,.0,.0,3.1,.0,7.0L.0,26.0C.0,29.9,3.1,33.0,7.0,33.0L150.8,33.0C154.6,33.0,157.8,29.9,157.8,26.0z"/><text style="fill:#191919;font-family:Times New Roman;font-size:15.00pt" xml:space="preserve"><tspan y="23.0" x="42.4">Visualize</tspan></text></g><g id="shape13" transform="translate(1290.137728,749.850644)"><path fill-rule="nonzero" fill="#ffffff" stroke="#323232" stroke-width="1" d="M157.8,26.0L157.8,7.0C157.8,3.1,154.6,.0,150.8,.0L7.0,.0C3.1,.0,.0,3.1,.0,7.0L.0,26.0C.0,29.9,3.1,33.0,7.0,33.0L150.8,33.0C154.6,33.0,157.8,29.9,157.8,26.0z"/><text style="fill:#191919;font-family:Times New Roman;font-size:15.00pt" xml:space="preserve"><tspan y="23.0" x="16.9">Start Recording</tspan></text></g><g id="shape14" transform="translate(1290.137728,791.850644)"><path fill-rule="nonzero" fill="#ffffff" stroke="#323232" stroke-width="1" d="M157.8,26.0L157.8,7.0C157.8,3.1,154.6,.0,150.8,.0L7.0,.0C3.1,.0,.0,3.1,.0,7.0L.0,26.0C.0,29.9,3.1,33.0,7.0,33.0L150.8,33.0C154.6,33.0,157.8,29.9,157.8,26.0z"/><text style="fill:#191919;font-family:Times New Roman;font-size:15.00pt" xml:space="preserve"><tspan y="23.0" x="17.4">Stop Recording</tspan></text></g><path fill-rule="nonzero" fill="#f5cfcf" id="shape15" stroke="#a83132" stroke-width="2.666670083999634" d="M183.6,154.0L183.6,7.0C183.6,3.1,180.5,.0,176.6,.0L7.0,.0C3.1,.0,.0,3.1,.0,7.0L.0,154.0C.0,157.9,3.1,161.0,7.0,161.0L176.6,161.0C180.5,161.0,183.6,157.9,183.6,154.0z" transform="translate(1469.206528,683.850644)"/><g id="shape16" transform="translate(1482.207728,650.850644)"><path fill-rule="nonzero" fill="#f5cfcf" stroke="#a83132" stroke-width="2.666670083999634" d="M157.8,41.0L157.8,7.0C157.8,3.1,154.6,.0,150.8,.0L7.0,.0C3.1,.0,.0,3.1,.0,7.0L.0,41.0C.0,44.9,3.1,48.0,7.0,48.0L150.8,48.0C154.6,48.0,157.8,44.9,157.8,41.0z"/><text style="fill:#191919;font-family:Times New Roman;font-size:13.00pt;font-weight:bold" xml:space="preserve"><tspan y="30.0" x="27.4">Muse Control</tspan></text></g><g id="shape17" transform="translate(1482.207728,707.850644)"><path fill-rule="nonzero" fill="#ffffff" stroke="#323232" stroke-width="1" d="M157.8,26.0L157.8,7.0C157.8,3.1,154.6,.0,150.8,.0L7.0,.0C3.1,.0,.0,3.1,.0,7.0L.0,26.0C.0,29.9,3.1,33.0,7.0,33.0L150.8,33.0C154.6,33.0,157.8,29.9,157.8,26.0z"/><text style="fill:#191919;font-family:Times New Roman;font-size:15.00pt" xml:space="preserve"><tspan y="23.0" x="42.4">Visualize</tspan></text></g><g id="shape18" transform="translate(1482.137728,749.850644)"><path fill-rule="nonzero" fill="#ffffff" stroke="#323232" stroke-width="1" d="M157.8,26.0L157.8,7.0C157.8,3.1,154.6,.0,150.8,.0L7.0,.0C3.1,.0,.0,3.1,.0,7.0L.0,26.0C.0,29.9,3.1,33.0,7.0,33.0L150.8,33.0C154.6,33.0,157.8,29.9,157.8,26.0z"/><text style="fill:#191919;font-family:Times New Roman;font-size:15.00pt" xml:space="preserve"><tspan y="23.0" x="16.9">Start Recording</tspan></text></g><g id="shape19" transform="translate(1482.137728,791.850644)"><path fill-rule="nonzero" fill="#ffffff" stroke="#323232" stroke-width="1" d="M157.8,26.0L157.8,7.0C157.8,3.1,154.6,.0,150.8,.0L7.0,.0C3.1,.0,.0,3.1,.0,7.0L.0,26.0C.0,29.9,3.1,33.0,7.0,33.0L150.8,33.0C154.6,33.0,157.8,29.9,157.8,26.0z"/><text style="fill:#191919;font-family:Times New Roman;font-size:15.00pt" xml:space="preserve"><tspan y="23.0" x="17.4">Stop Recording</tspan></text></g><path fill-rule="nonzero" fill="#f5cfcf" id="shape20" stroke="#a83132" stroke-width="2.666670083999634" d="M183.6,154.0L183.6,7.0C183.6,3.1,180.5,.0,176.6,.0L7.0,.0C3.1,.0,.0,3.1,.0,7.0L.0,154.0C.0,157.9,3.1,161.0,7.0,161.0L176.6,161.0C180.5,161.0,183.6,157.9,183.6,154.0z" transform="translate(1661.206528,683.850644)"/><g id="shape21" transform="translate(1674.207528,650.850644)"><path fill-rule="nonzero" fill="#f5cfcf" stroke="#a83132" stroke-width="2.666670083999634" d="M157.8,41.0L157.8,7.0C157.8,3.1,154.6,.0,150.8,.0L7.0,.0C3.1,.0,.0,3.1,.0,7.0L.0,41.0C.0,44.9,3.1,48.0,7.0,48.0L150.8,48.0C154.6,48.0,157.8,44.9,157.8,41.0z"/><text style="fill:#191919;font-family:Times New Roman;font-size:13.00pt;font-weight:bold" xml:space="preserve"><tspan y="20.0" x="26.4">Image Stimuli </tspan><tspan y="40.0" x="49.4">Control</tspan></text></g><g id="shape22" transform="translate(1674.207728,707.850644)"><path fill-rule="nonzero" fill="#ffffff" stroke="#323232" stroke-width="1" d="M157.8,26.0L157.8,7.0C157.8,3.1,154.6,.0,150.8,.0L7.0,.0C3.1,.0,.0,3.1,.0,7.0L.0,26.0C.0,29.9,3.1,33.0,7.0,33.0L150.8,33.0C154.6,33.0,157.8,29.9,157.8,26.0z"/><text style="fill:#191919;font-family:Times New Roman;font-size:15.00pt" xml:space="preserve"><tspan y="23.0" x="29.9">Load Config</tspan></text></g><g id="shape23" transform="translate(1674.137728,749.850644)"><path fill-rule="nonzero" fill="#ffffff" stroke="#323232" stroke-width="1" d="M157.8,26.0L157.8,7.0C157.8,3.1,154.6,.0,150.8,.0L7.0,.0C3.1,.0,.0,3.1,.0,7.0L.0,26.0C.0,29.9,3.1,33.0,7.0,33.0L150.8,33.0C154.6,33.0,157.8,29.9,157.8,26.0z"/><text style="fill:#191919;font-family:Times New Roman;font-size:15.00pt" xml:space="preserve"><tspan y="23.0" x="30.4">Save Config</tspan></text></g><g id="shape24" transform="translate(1674.137728,791.850644)"><path fill-rule="nonzero" fill="#ffffff" stroke="#323232" stroke-width="1" d="M157.8,26.0L157.8,7.0C157.8,3.1,154.6,.0,150.8,.0L7.0,.0C3.1,.0,.0,3.1,.0,7.0L.0,26.0C.0,29.9,3.1,33.0,7.0,33.0L150.8,33.0C154.6,33.0,157.8,29.9,157.8,26.0z"/><text style="fill:#191919;font-family:Times New Roman;font-size:15.00pt" xml:space="preserve"><tspan y="23.0" x="29.4">Start Stimuli</tspan></text></g><path fill-rule="nonzero" fill="#f5cfcf" id="shape25" stroke="#a83132" stroke-width="2.666670083999634" d="M183.6,154.0L183.6,7.0C183.6,3.1,180.5,.0,176.6,.0L7.0,.0C3.1,.0,.0,3.1,.0,7.0L.0,154.0C.0,157.9,3.1,161.0,7.0,161.0L176.6,161.0C180.5,161.0,183.6,157.9,183.6,154.0z" transform="translate(1853.206528,683.850644)"/><g id="shape26" transform="translate(1866.207528,650.850644)"><path fill-rule="nonzero" fill="#f5cfcf" stroke="#a83132" stroke-width="2.666670083999634" d="M157.8,41.0L157.8,7.0C157.8,3.1,154.6,.0,150.8,.0L7.0,.0C3.1,.0,.0,3.1,.0,7.0L.0,41.0C.0,44.9,3.1,48.0,7.0,48.0L150.8,48.0C154.6,48.0,157.8,44.9,157.8,41.0z"/><text style="fill:#191919;font-family:Times New Roman;font-size:13.00pt;font-weight:bold" xml:space="preserve"><tspan y="20.0" x="27.9">Video Stimuli </tspan><tspan y="40.0" x="49.4">Control</tspan></text></g><g id="shape27" transform="translate(1866.207728,707.850644)"><path fill-rule="nonzero" fill="#ffffff" stroke="#323232" stroke-width="1" d="M157.8,26.0L157.8,7.0C157.8,3.1,154.6,.0,150.8,.0L7.0,.0C3.1,.0,.0,3.1,.0,7.0L.0,26.0C.0,29.9,3.1,33.0,7.0,33.0L150.8,33.0C154.6,33.0,157.8,29.9,157.8,26.0z"/><text style="fill:#191919;font-family:Times New Roman;font-size:15.00pt" xml:space="preserve"><tspan y="23.0" x="29.9">Load Config</tspan></text></g><g id="shape28" transform="translate(1866.137728,749.850644)"><path fill-rule="nonzero" fill="#ffffff" stroke="#323232" stroke-width="1" d="M157.8,26.0L157.8,7.0C157.8,3.1,154.6,.0,150.8,.0L7.0,.0C3.1,.0,.0,3.1,.0,7.0L.0,26.0C.0,29.9,3.1,33.0,7.0,33.0L150.8,33.0C154.6,33.0,157.8,29.9,157.8,26.0z"/><text style="fill:#191919;font-family:Times New Roman;font-size:15.00pt" xml:space="preserve"><tspan y="23.0" x="30.4">Save Config</tspan></text></g><g id="shape29" transform="translate(1866.137728,791.850644)"><path fill-rule="nonzero" fill="#ffffff" stroke="#323232" stroke-width="1" d="M157.8,26.0L157.8,7.0C157.8,3.1,154.6,.0,150.8,.0L7.0,.0C3.1,.0,.0,3.1,.0,7.0L.0,26.0C.0,29.9,3.1,33.0,7.0,33.0L150.8,33.0C154.6,33.0,157.8,29.9,157.8,26.0z"/><text style="fill:#191919;font-family:Times New Roman;font-size:15.00pt" xml:space="preserve"><tspan y="23.0" x="29.4">Start Stimuli</tspan></text></g><path fill="none" id="shape30" stroke="#a83132" stroke-width="2.666670083999634" stroke-dasharray="6,4" d="M978.4,247.9L978.4,7.0C978.4,3.1,975.3,.0,971.4,.0L7.0,.0C3.1,.0,.0,3.1,.0,7.0L.0,247.9C.0,251.8,3.1,254.9,7.0,254.9L971.4,254.9C975.3,254.9,978.4,251.8,978.4,247.9z" transform="translate(1073.266028,606.901644)"/><g id="shape31" transform="translate(1073.265028,586.015144)"><path fill-rule="nonzero" fill="#f5cfcf" stroke="#a83132" stroke-width="2.666670083999634" d="M979.0,37.8L979.0,7.0C979.0,3.1,975.9,.0,972.0,.0L7.0,.0C3.1,.0,.0,3.1,.0,7.0L.0,37.8C.0,41.7,3.1,44.8,7.0,44.8L972.0,44.8C975.9,44.8,979.0,41.7,979.0,37.8z"/><text style="fill:#191919;font-family:Times New Roman;font-size:14.00pt;font-weight:bold" xml:space="preserve"><tspan y="28.9" x="4.0">      Web based GUI (html, csss, js)</tspan></text></g><g id="shape32" transform="translate(1468.926528,284.748644)"><path fill-rule="nonzero" fill="#e9f4ed" stroke="#2e8d5d" stroke-width="2.666670083999634" d="M183.6,66.5L183.6,7.0C183.6,3.1,180.5,.0,176.6,.0L7.0,.0C3.1,.0,.0,3.1,.0,7.0L.0,66.5C.0,70.4,3.1,73.5,7.0,73.5L176.6,73.5C180.5,73.5,183.6,70.4,183.6,66.5z"/><text style="fill:#191919;font-family:Times New Roman;font-size:15.00pt" xml:space="preserve"><tspan y="41.5" x="46.3">Show Live </tspan><tspan y="64.5" x="51.8">EEG Data</tspan></text></g><g id="shape33" transform="translate(1481.927728,251.748644)"><path fill-rule="nonzero" fill="#e9f4ed" stroke="#2e8d5d" stroke-width="2.666670083999634" d="M157.8,41.0L157.8,7.0C157.8,3.1,154.6,.0,150.8,.0L7.0,.0C3.1,.0,.0,3.1,.0,7.0L.0,41.0C.0,44.9,3.1,48.0,7.0,48.0L150.8,48.0C154.6,48.0,157.8,44.9,157.8,41.0z"/><text style="fill:#191919;font-family:Times New Roman;font-size:13.00pt;font-weight:bold" xml:space="preserve"><tspan y="20.0" x="20.9">ShowMuseFeed </tspan><tspan y="40.0" x="62.9">GUI</tspan></text></g><g id="shape34" transform="translate(1277.276528,284.748644)"><path fill-rule="nonzero" fill="#e9f4ed" stroke="#2e8d5d" stroke-width="2.666670083999634" d="M183.6,66.5L183.6,7.0C183.6,3.1,180.5,.0,176.6,.0L7.0,.0C3.1,.0,.0,3.1,.0,7.0L.0,66.5C.0,70.4,3.1,73.5,7.0,73.5L176.6,73.5C180.5,73.5,183.6,70.4,183.6,66.5z"/><text style="fill:#191919;font-family:Times New Roman;font-size:15.00pt" xml:space="preserve"><tspan y="42.0" x="46.3">Show Live </tspan><tspan y="65.0" x="47.3">Video Data</tspan></text></g><g id="shape35" transform="translate(1290.277728,251.748644)"><path fill-rule="nonzero" fill="#e9f4ed" stroke="#2e8d5d" stroke-width="2.666670083999634" d="M157.8,41.0L157.8,7.0C157.8,3.1,154.6,.0,150.8,.0L7.0,.0C3.1,.0,.0,3.1,.0,7.0L.0,41.0C.0,44.9,3.1,48.0,7.0,48.0L150.8,48.0C154.6,48.0,157.8,44.9,157.8,41.0z"/><text style="fill:#191919;font-family:Times New Roman;font-size:13.00pt;font-weight:bold" xml:space="preserve"><tspan y="20.0" x="19.9">ShowVideoFeed </tspan><tspan y="40.0" x="62.9">GUI</tspan></text></g><g id="shape36" transform="translate(1853.276528,284.748644)"><path fill-rule="nonzero" fill="#e9f4ed" stroke="#2e8d5d" stroke-width="2.666670083999634" d="M183.6,66.5L183.6,7.0C183.6,3.1,180.5,.0,176.6,.0L7.0,.0C3.1,.0,.0,3.1,.0,7.0L.0,66.5C.0,70.4,3.1,73.5,7.0,73.5L176.6,73.5C180.5,73.5,183.6,70.4,183.6,66.5z"/><text style="fill:#191919;font-family:Times New Roman;font-size:15.00pt" xml:space="preserve"><tspan y="42.0" x="43.3">Show Video</tspan><tspan y="65.0" x="52.3">as Stimuli</tspan></text></g><g id="shape37" transform="translate(1866.277728,251.748644)"><path fill-rule="nonzero" fill="#e9f4ed" stroke="#2e8d5d" stroke-width="2.666670083999634" d="M157.8,41.0L157.8,7.0C157.8,3.1,154.6,.0,150.8,.0L7.0,.0C3.1,.0,.0,3.1,.0,7.0L.0,41.0C.0,44.9,3.1,48.0,7.0,48.0L150.8,48.0C154.6,48.0,157.8,44.9,157.8,41.0z"/><text style="fill:#191919;font-family:Times New Roman;font-size:13.00pt;font-weight:bold" xml:space="preserve"><tspan y="20.0" x="14.4">StartVideoStimul </tspan><tspan y="40.0" x="62.9">GUI</tspan></text></g><g id="shape38" transform="translate(1661.206528,284.748644)"><path fill-rule="nonzero" fill="#e9f4ed" stroke="#2e8d5d" stroke-width="2.666670083999634" d="M183.6,66.5L183.6,7.0C183.6,3.1,180.5,.0,176.6,.0L7.0,.0C3.1,.0,.0,3.1,.0,7.0L.0,66.5C.0,70.4,3.1,73.5,7.0,73.5L176.6,73.5C180.5,73.5,183.6,70.4,183.6,66.5z"/><text style="fill:#191919;font-family:Times New Roman;font-size:15.00pt" xml:space="preserve"><tspan y="42.0" x="38.3">Show  Image </tspan><tspan y="65.0" x="52.3">as Stimuli</tspan></text></g><g id="shape39" transform="translate(1674.207728,251.748644)"><path fill-rule="nonzero" fill="#e9f4ed" stroke="#2e8d5d" stroke-width="2.666670083999634" d="M157.8,41.0L157.8,7.0C157.8,3.1,154.6,.0,150.8,.0L7.0,.0C3.1,.0,.0,3.1,.0,7.0L.0,41.0C.0,44.9,3.1,48.0,7.0,48.0L150.8,48.0C154.6,48.0,157.8,44.9,157.8,41.0z"/><text style="fill:#191919;font-family:Times New Roman;font-size:13.00pt;font-weight:bold" xml:space="preserve"><tspan y="20.0" x="12.9">StartImageStimul </tspan><tspan y="40.0" x="62.9">GUI</tspan></text></g><g id="shape40" transform="translate(1073.195028,173.850144)"><path fill-rule="nonzero" fill="#e9f4ed" stroke="#2e8d5d" stroke-width="2.666670083999634" d="M979.0,41.0L979.0,7.0C979.0,3.1,975.9,.0,972.0,.0L7.0,.0C3.1,.0,.0,3.1,.0,7.0L.0,41.0C.0,44.9,3.1,48.0,7.0,48.0L972.0,48.0C975.9,48.0,979.0,44.9,979.0,41.0z"/><text style="fill:#191919;font-family:Times New Roman;font-size:14.00pt;font-weight:bold" xml:space="preserve"><tspan y="30.5" x="398.0">Python based backend</tspan></text></g><g id="shape41" transform="translate(1086.276528,288.836244)"><path fill-rule="nonzero" fill="#e9f4ed" stroke="#2e8d5d" stroke-width="2.666670083999634" d="M183.6,91.3L183.6,7.0C183.6,3.1,180.5,.0,176.6,.0L7.0,.0C3.1,.0,.0,3.1,.0,7.0L.0,91.3C.0,95.2,3.1,98.3,7.0,98.3L176.6,98.3C180.5,98.3,183.6,95.2,183.6,91.3z"/><text style="fill:#191919;font-family:Times New Roman;font-size:15.00pt" xml:space="preserve"><tspan y="43.3" x="38.8">Muse Setup()</tspan><tspan y="66.3" x="26.8">Webcam Setup()</tspan><tspan y="89.3" x="38.8">Flask Setup()</tspan></text></g><g id="shape42" transform="translate(1099.277728,255.835644)"><path fill-rule="nonzero" fill="#e9f4ed" stroke="#2e8d5d" stroke-width="2.666670083999634" d="M157.8,41.0L157.8,7.0C157.8,3.1,154.6,.0,150.8,.0L7.0,.0C3.1,.0,.0,3.1,.0,7.0L.0,41.0C.0,44.9,3.1,48.0,7.0,48.0L150.8,48.0C154.6,48.0,157.8,44.9,157.8,41.0z"/><text style="fill:#191919;font-family:Times New Roman;font-size:13.00pt;font-weight:bold" xml:space="preserve"><tspan y="30.0" x="30.4">Initialization</tspan></text></g><g id="shape43" transform="translate(1277.206528,441.121244)"><path fill-rule="nonzero" fill="#e9f4ed" stroke="#2e8d5d" stroke-width="2.666670083999634" d="M183.6,91.3L183.6,7.0C183.6,3.1,180.5,.0,176.6,.0L7.0,.0C3.1,.0,.0,3.1,.0,7.0L.0,91.3C.0,95.2,3.1,98.3,7.0,98.3L176.6,98.3C180.5,98.3,183.6,95.2,183.6,91.3z"/><text style="fill:#191919;font-family:Times New Roman;font-size:15.00pt" xml:space="preserve"><tspan y="44.0" x="19.3">ShowVideoFeed()</tspan><tspan y="67.0" x="25.3">StartRecording()</tspan><tspan y="90.0" x="25.8">StopRecording()</tspan></text></g><g id="shape44" transform="translate(1290.207728,408.119644)"><path fill-rule="nonzero" fill="#e9f4ed" stroke="#2e8d5d" stroke-width="2.666670083999634" d="M157.8,41.0L157.8,7.0C157.8,3.1,154.6,.0,150.8,.0L7.0,.0C3.1,.0,.0,3.1,.0,7.0L.0,41.0C.0,44.9,3.1,48.0,7.0,48.0L150.8,48.0C154.6,48.0,157.8,44.9,157.8,41.0z"/><text style="fill:#191919;font-family:Times New Roman;font-size:13.00pt;font-weight:bold" xml:space="preserve"><tspan y="20.0" x="26.4">Backend RGB </tspan><tspan y="40.0" x="26.4">Video Control</tspan></text></g><g id="shape45" transform="translate(1468.926528,441.121244)"><path fill-rule="nonzero" fill="#e9f4ed" stroke="#2e8d5d" stroke-width="2.666670083999634" d="M183.6,91.3L183.6,7.0C183.6,3.1,180.5,.0,176.6,.0L7.0,.0C3.1,.0,.0,3.1,.0,7.0L.0,91.3C.0,95.2,3.1,98.3,7.0,98.3L176.6,98.3C180.5,98.3,183.6,95.2,183.6,91.3z"/><text style="fill:#191919;font-family:Times New Roman;font-size:15.00pt" xml:space="preserve"><tspan y="44.0" x="21.3">ShowMuseFeed()</tspan><tspan y="67.0" x="25.3">StartRecording()</tspan><tspan y="90.0" x="25.8">StopRecording()</tspan></text></g><g id="shape46" transform="translate(1481.927728,408.119644)"><path fill-rule="nonzero" fill="#e9f4ed" stroke="#2e8d5d" stroke-width="2.666670083999634" d="M157.8,41.0L157.8,7.0C157.8,3.1,154.6,.0,150.8,.0L7.0,.0C3.1,.0,.0,3.1,.0,7.0L.0,41.0C.0,44.9,3.1,48.0,7.0,48.0L150.8,48.0C154.6,48.0,157.8,44.9,157.8,41.0z"/><text style="fill:#191919;font-family:Times New Roman;font-size:13.00pt;font-weight:bold" xml:space="preserve"><tspan y="20.0" x="25.4">Backend Muse </tspan><tspan y="40.0" x="49.4">Control</tspan></text></g><g id="shape47" transform="translate(1661.276528,441.121244)"><path fill-rule="nonzero" fill="#e9f4ed" stroke="#2e8d5d" stroke-width="2.666670083999634" d="M183.6,91.3L183.6,7.0C183.6,3.1,180.5,.0,176.6,.0L7.0,.0C3.1,.0,.0,3.1,.0,7.0L.0,91.3C.0,95.2,3.1,98.3,7.0,98.3L176.6,98.3C180.5,98.3,183.6,95.2,183.6,91.3z"/><text style="fill:#191919;font-family:Times New Roman;font-size:15.00pt" xml:space="preserve"><tspan y="44.0" x="38.3">LoadConfig()</tspan><tspan y="67.0" x="38.8">SaveConfig()</tspan><tspan y="90.0" x="14.3">StartImageStimuli()</tspan></text></g><g id="shape48" transform="translate(1674.277728,408.119644)"><path fill-rule="nonzero" fill="#e9f4ed" stroke="#2e8d5d" stroke-width="2.666670083999634" d="M157.8,41.0L157.8,7.0C157.8,3.1,154.6,.0,150.8,.0L7.0,.0C3.1,.0,.0,3.1,.0,7.0L.0,41.0C.0,44.9,3.1,48.0,7.0,48.0L150.8,48.0C154.6,48.0,157.8,44.9,157.8,41.0z"/><text style="fill:#191919;font-family:Times New Roman;font-size:13.00pt;font-weight:bold" xml:space="preserve"><tspan y="20.0" x="22.9">Backend Image </tspan><tspan y="40.0" x="19.4">Stimuli Control</tspan></text></g><g id="shape49" transform="translate(1853.206528,441.121244)"><path fill-rule="nonzero" fill="#e9f4ed" stroke="#2e8d5d" stroke-width="2.666670083999634" d="M183.6,91.3L183.6,7.0C183.6,3.1,180.5,.0,176.6,.0L7.0,.0C3.1,.0,.0,3.1,.0,7.0L.0,91.3C.0,95.2,3.1,98.3,7.0,98.3L176.6,98.3C180.5,98.3,183.6,95.2,183.6,91.3z"/><text style="fill:#191919;font-family:Times New Roman;font-size:15.00pt" xml:space="preserve"><tspan y="44.0" x="38.3">LoadConfig()</tspan><tspan y="67.0" x="38.8">SaveConfig()</tspan><tspan y="90.0" x="14.3">StartVideoStimuli()</tspan></text></g><g id="shape50" transform="translate(1866.207728,408.119644)"><path fill-rule="nonzero" fill="#e9f4ed" stroke="#2e8d5d" stroke-width="2.666670083999634" d="M157.8,41.0L157.8,7.0C157.8,3.1,154.6,.0,150.8,.0L7.0,.0C3.1,.0,.0,3.1,.0,7.0L.0,41.0C.0,44.9,3.1,48.0,7.0,48.0L150.8,48.0C154.6,48.0,157.8,44.9,157.8,41.0z"/><text style="fill:#191919;font-family:Times New Roman;font-size:13.00pt;font-weight:bold" xml:space="preserve"><tspan y="20.0" x="24.4">Backend Video</tspan><tspan y="40.0" x="19.4">Stimuli Control</tspan></text></g><g id="shape51" transform="translate(980.889028,303.682844)"><path fill="none" stroke="#191919" stroke-width="4" d="M.0,.0L.0,29.1"/><path stroke-linecap="round" fill="#191919" stroke-width="1" stroke="#191919" d="M6.0,29.1L.0,41.1L-6.0,29.1L6.0,29.1"/></g><g id="shape53" transform="translate(1040.064028,380.164644)"><path fill="none" stroke="#191919" stroke-width="4" d="M.0,.0L21.1,.0"/><path stroke-linecap="round" fill="#191919" stroke-width="1" stroke="#191919" d="M21.1,-6.0L33.1,.0L21.1,6.0L21.1,-6.0"/></g><g id="shape54" transform="translate(1040.064028,491.848644)"><path fill="none" stroke="#191919" stroke-width="4" d="M.0,.0L21.1,.0"/><path stroke-linecap="round" fill="#191919" stroke-width="1" stroke="#191919" d="M21.1,-6.0L33.1,.0L21.1,6.0L21.1,-6.0"/></g><g id="shape55" transform="translate(1178.095028,387.161044)"><path fill="none" stroke="#191919" stroke-width="4" d="M.0,.0L-0.0,186.9"/><path stroke-linecap="round" fill="#191919" stroke-width="1" stroke="#191919" d="M6.0,186.9L-0.0,198.9L-6.0,186.9L6.0,186.9"/></g><g id="shape56" transform="translate(1369.095028,650.850644)"><path fill="none" stroke="#191919" stroke-width="4" d="M.0,.0L.0,-99.4"/><path stroke-linecap="round" fill="#191919" stroke-width="1" stroke="#191919" d="M-6.0,-99.4L.0,-111.4L6.0,-99.4L-6.0,-99.4"/></g><g id="shape57" transform="translate(1561.095028,650.850644)"><path fill="none" stroke="#191919" stroke-width="4" d="M.0,.0L.0,-109.8L-0.3,-109.8"/><path stroke-linecap="round" fill="#191919" stroke-width="1" stroke="#191919" d="M-6.3,-99.4L-0.3,-111.4L5.7,-99.4L-6.3,-99.4"/></g><g id="shape58" transform="translate(1753.095028,650.850644)"><path fill="none" stroke="#191919" stroke-width="4" d="M.0,.0L.0,-99.4"/><path stroke-linecap="round" fill="#191919" stroke-width="1" stroke="#191919" d="M-6.0,-99.4L.0,-111.4L6.0,-99.4L-6.0,-99.4"/></g><g id="shape59" transform="translate(1945.095028,650.850644)"><path fill="none" stroke="#191919" stroke-width="4" d="M.0,.0L.0,-73.2L-0.1,-73.2L-0.1,-99.4"/><path stroke-linecap="round" fill="#191919" stroke-width="1" stroke="#191919" d="M-6.1,-99.4L-0.1,-111.4L5.9,-99.4L-6.1,-99.4"/></g><g id="shape60" transform="translate(1369.095028,408.119644)"><path fill="none" stroke="#191919" stroke-width="4" d="M.0,.0L.0,-37.9"/><path stroke-linecap="round" fill="#191919" stroke-width="1" stroke="#191919" d="M-6.0,-37.9L.0,-49.9L6.0,-37.9L-6.0,-37.9"/></g><g id="shape61" transform="translate(1560.815028,408.119644)"><path fill="none" stroke="#191919" stroke-width="4" d="M.0,.0L.0,-24.9L-0.1,-24.9L-0.1,-37.9"/><path stroke-linecap="round" fill="#191919" stroke-width="1" stroke="#191919" d="M-6.1,-37.9L-0.1,-49.9L5.9,-37.9L-6.1,-37.9"/></g><g id="shape62" transform="translate(1753.165028,408.119644)"><path fill="none" stroke="#191919" stroke-width="4" d="M.0,.0L.0,-24.9L-0.1,-24.9L-0.1,-37.9"/><path stroke-linecap="round" fill="#191919" stroke-width="1" stroke="#191919" d="M-6.1,-37.9L-0.1,-49.9L5.9,-37.9L-6.1,-37.9"/></g><g id="shape63" transform="translate(1945.095028,408.119644)"><path fill="none" stroke="#191919" stroke-width="4" d="M.0,.0L.0,-37.9"/><path stroke-linecap="round" fill="#191919" stroke-width="1" stroke="#191919" d="M-6.0,-37.9L.0,-49.9L6.0,-37.9L-6.0,-37.9"/></g><g id="shape64" transform="translate(2052.265028,380.350644)"><path fill="none" stroke="#191919" stroke-width="4" d="M12.0,.0L25.6,-0.0"/><path stroke-linecap="round" fill="#191919" stroke-width="1" stroke="#191919" d="M12.0,6.0L.0,.0L12.0,-6.0L12.0,6.0"/><path stroke-linecap="round" fill="#191919" stroke-width="1" stroke="#191919" d="M25.6,-6.0L37.6,-0.0L25.6,6.0L25.6,-6.0"/></g><g id="shape65" transform="translate(2051.704028,734.375644)"><path fill="none" stroke="#191919" stroke-width="4" d="M12.0,-0.1L26.1,-0.1"/><path stroke-linecap="round" fill="#191919" stroke-width="1" stroke="#191919" d="M12.0,5.9L.0,.0L12.0,-6.1L12.0,5.9"/><path stroke-linecap="round" fill="#191919" stroke-width="1" stroke="#191919" d="M26.1,-6.1L38.1,-0.2L26.2,5.9L26.1,-6.1"/></g></g></svg>